<?xml version="1.0" encoding="UTF-8"?>
<?xml-stylesheet href="https://cdnjs.cloudflare.com/ajax/libs/font-awesome/7.2.0/css/all.min.css" type="text/css"?>
<svg id="graph-77" width="100%" xmlns="http://www.w3.org/2000/svg" class="classDiagram" style="overflow: hidden; max-width: 100%; touch-action: none; user-select: none; -webkit-user-drag: none; -webkit-tap-highlight-color: rgba(0, 0, 0, 0); background-color: rgb(255, 255, 255);" role="graphics-document document" aria-roledescription="class" height="100%" xmlns:xlink="http://www.w3.org/1999/xlink" xmlns:ev="http://www.w3.org/2001/xml-events"><defs><filter id="graph-77-drop-shadow" height="130%" width="130%"><feDropShadow dx="4" dy="4" stdDeviation="0" flood-opacity="0.06" flood-color="#000000"></feDropShadow></filter></defs><defs><filter id="graph-77-drop-shadow-small" height="150%" width="150%"><feDropShadow dx="2" dy="2" stdDeviation="0" flood-opacity="0.06" flood-color="#000000"></feDropShadow></filter></defs><g id="viewport-20260731030117511" class="svg-pan-zoom_viewport" transform="matrix(0.3144230288100344,0,0,0.3144230288100344,237.9210266789844,94.76278485449504)" style="transform: matrix(0.314423, 0, 0, 0.314423, 237.921, 94.7628);"><style>#graph-77{font-family:"trebuchet ms",verdana,arial,sans-serif;font-size:16px;fill:#333;}@keyframes edge-animation-frame{from{stroke-dashoffset:0;}}@keyframes dash{to{stroke-dashoffset:0;}}#graph-77 .edge-animation-slow{stroke-dasharray:9,5!important;stroke-dashoffset:900;animation:dash 50s linear infinite;stroke-linecap:round;}#graph-77 .edge-animation-fast{stroke-dasharray:9,5!important;stroke-dashoffset:900;animation:dash 20s linear infinite;stroke-linecap:round;}#graph-77 .error-icon{fill:#552222;}#graph-77 .error-text{fill:#552222;stroke:#552222;}#graph-77 .edge-thickness-normal{stroke-width:1px;}#graph-77 .edge-thickness-thick{stroke-width:3.5px;}#graph-77 .edge-pattern-solid{stroke-dasharray:0;}#graph-77 .edge-thickness-invisible{stroke-width:0;fill:none;}#graph-77 .edge-pattern-dashed{stroke-dasharray:3;}#graph-77 .edge-pattern-dotted{stroke-dasharray:2;}#graph-77 .marker{fill:#333333;stroke:#333333;}#graph-77 .marker.cross{stroke:#333333;}#graph-77 svg{font-family:"trebuchet ms",verdana,arial,sans-serif;font-size:16px;}#graph-77 p{margin:0;}#graph-77 g.classGroup text{fill:#9370DB;stroke:none;font-family:"trebuchet ms",verdana,arial,sans-serif;font-size:10px;}#graph-77 g.classGroup text .title{font-weight:bolder;}#graph-77 .cluster-label text{fill:#333;}#graph-77 .cluster-label span{color:#333;}#graph-77 .cluster-label span p{background-color:transparent;}#graph-77 .cluster rect{fill:#ffffde;stroke:#aaaa33;stroke-width:1px;}#graph-77 .cluster text{fill:#333;}#graph-77 .cluster span{color:#333;}#graph-77 .nodeLabel,#graph-77 .edgeLabel{color:#131300;}#graph-77 .noteLabel .nodeLabel,#graph-77 .noteLabel .edgeLabel{color:black;}#graph-77 .edgeLabel .label rect{fill:#ECECFF;}#graph-77 .label text{fill:#131300;}#graph-77 .labelBkg{background:#ECECFF;}#graph-77 .edgeLabel .label span{background:#ECECFF;}#graph-77 .classTitle{font-weight:bolder;}#graph-77 .node rect,#graph-77 .node circle,#graph-77 .node ellipse,#graph-77 .node polygon,#graph-77 .node path{fill:#ECECFF;stroke:#9370DB;stroke-width:1;}#graph-77 .divider{stroke:#9370DB;stroke-width:1;}#graph-77 g.clickable{cursor:pointer;}#graph-77 g.classGroup rect{fill:#ECECFF;stroke:#9370DB;}#graph-77 g.classGroup line{stroke:#9370DB;stroke-width:1;}#graph-77 .classLabel .box{stroke:none;stroke-width:0;fill:#ECECFF;opacity:0.5;}#graph-77 .classLabel .label{fill:#9370DB;font-size:10px;}#graph-77 .relation{stroke:#333333;stroke-width:1;fill:none;}#graph-77 .dashed-line{stroke-dasharray:3;}#graph-77 .dotted-line{stroke-dasharray:1 2;}#graph-77 [id$="-compositionStart"],#graph-77 .composition{fill:#333333!important;stroke:#333333!important;stroke-width:1;}#graph-77 [id$="-compositionEnd"],#graph-77 .composition{fill:#333333!important;stroke:#333333!important;stroke-width:1;}#graph-77 [id$="-dependencyStart"],#graph-77 .dependency{fill:#333333!important;stroke:#333333!important;stroke-width:1;}#graph-77 [id$="-dependencyEnd"],#graph-77 .dependency{fill:#333333!important;stroke:#333333!important;stroke-width:1;}#graph-77 [id$="-extensionStart"],#graph-77 .extension{fill:transparent!important;stroke:#333333!important;stroke-width:1;}#graph-77 [id$="-extensionEnd"],#graph-77 .extension{fill:transparent!important;stroke:#333333!important;stroke-width:1;}#graph-77 [id$="-aggregationStart"],#graph-77 .aggregation{fill:transparent!important;stroke:#333333!important;stroke-width:1;}#graph-77 [id$="-aggregationEnd"],#graph-77 .aggregation{fill:transparent!important;stroke:#333333!important;stroke-width:1;}#graph-77 [id$="-lollipopStart"],#graph-77 .lollipop{fill:#ECECFF!important;stroke:#333333!important;stroke-width:1;}#graph-77 [id$="-lollipopEnd"],#graph-77 .lollipop{fill:#ECECFF!important;stroke:#333333!important;stroke-width:1;}#graph-77 .edgeTerminals{font-size:11px;line-height:initial;}#graph-77 .classTitleText{text-anchor:middle;font-size:18px;fill:#333;}#graph-77 .edgeLabel[data-look="neo"]{background-color:rgba(232,232,232, 0.8);text-align:center;}#graph-77 .edgeLabel[data-look="neo"] p{background-color:rgba(232,232,232, 0.8);}#graph-77 .edgeLabel[data-look="neo"] rect{opacity:0.5;background-color:rgba(232,232,232, 0.8);fill:rgba(232,232,232, 0.8);}#graph-77 .label-icon{display:inline-block;height:1em;overflow:visible;vertical-align:-0.125em;}#graph-77 .node .label-icon path{fill:currentColor;stroke:revert;stroke-width:revert;}#graph-77 .node .neo-node{stroke:#9370DB;}#graph-77 [data-look="neo"].node rect,#graph-77 [data-look="neo"].cluster rect,#graph-77 [data-look="neo"].node polygon{stroke:#9370DB;filter:drop-shadow(1px 2px 2px rgba(185, 185, 185, 1));}#graph-77 [data-look="neo"].swimlane.cluster rect{filter:none;}#graph-77 [data-look="neo"].node path{stroke:#9370DB;stroke-width:1px;}#graph-77 [data-look="neo"].node .outer-path{filter:drop-shadow(1px 2px 2px rgba(185, 185, 185, 1));}#graph-77 [data-look="neo"].node .neo-line path{stroke:#9370DB;filter:none;}#graph-77 [data-look="neo"].node circle{stroke:#9370DB;filter:drop-shadow(1px 2px 2px rgba(185, 185, 185, 1));}#graph-77 [data-look="neo"].node circle .state-start{fill:#000000;}#graph-77 [data-look="neo"].icon-shape .icon{fill:#9370DB;filter:drop-shadow(1px 2px 2px rgba(185, 185, 185, 1));}#graph-77 [data-look="neo"].icon-shape .icon-neo path{stroke:#9370DB;filter:drop-shadow(1px 2px 2px rgba(185, 185, 185, 1));}#graph-77 :root{--mermaid-font-family:"trebuchet ms",verdana,arial,sans-serif;}</style><g><defs><marker id="graph-77_class-aggregationStart" class="marker aggregation class" refX="18" refY="7" markerWidth="190" markerHeight="240" orient="auto"><path d="M 18,7 L9,13 L1,7 L9,1 Z"></path></marker></defs><defs><marker id="graph-77_class-aggregationEnd" class="marker aggregation class" refX="1" refY="7" markerWidth="20" markerHeight="28" orient="auto"><path d="M 18,7 L9,13 L1,7 L9,1 Z"></path></marker></defs><defs><marker id="graph-77_class-aggregationStart-margin" class="marker aggregation class" refX="15" refY="7" markerWidth="190" markerHeight="240" orient="auto" markerUnits="userSpaceOnUse"><path d="M 18,7 L9,13 L1,7 L9,1 Z" style="stroke-width: 2;"></path></marker></defs><defs><marker id="graph-77_class-aggregationEnd-margin" class="marker aggregation class" refX="1" refY="7" markerWidth="20" markerHeight="28" orient="auto" markerUnits="userSpaceOnUse"><path d="M 18,7 L9,13 L1,7 L9,1 Z" style="stroke-width: 2;"></path></marker></defs><defs><marker id="graph-77_class-extensionStart" class="marker extension class" refX="18" refY="7" markerWidth="20" markerHeight="28" orient="auto" markerUnits="userSpaceOnUse"><path d="M 1,7 L18,13 V 1 Z"></path></marker></defs><defs><marker id="graph-77_class-extensionEnd" class="marker extension class" refX="1" refY="7" markerWidth="20" markerHeight="28" orient="auto"><path d="M 1,1 V 13 L18,7 Z"></path></marker></defs><marker id="graph-77_class-extensionStart-margin" class="marker extension class" refX="18" refY="7" markerWidth="20" markerHeight="28" orient="auto" markerUnits="userSpaceOnUse" viewBox="0 0 20 14"><polygon points="10,7 18,13 18,1" style="stroke-width: 2; stroke-dasharray: 0;"></polygon></marker><defs><marker id="graph-77_class-extensionEnd-margin" class="marker extension class" refX="9" refY="7" markerWidth="20" markerHeight="28" orient="auto" markerUnits="userSpaceOnUse" viewBox="0 0 20 14"><polygon points="10,1 10,13 18,7" style="stroke-width: 2; stroke-dasharray: 0;"></polygon></marker></defs><defs><marker id="graph-77_class-compositionStart" class="marker composition class" refX="18" refY="7" markerWidth="190" markerHeight="240" orient="auto"><path d="M 18,7 L9,13 L1,7 L9,1 Z"></path></marker></defs><defs><marker id="graph-77_class-compositionEnd" class="marker composition class" refX="1" refY="7" markerWidth="20" markerHeight="28" orient="auto"><path d="M 18,7 L9,13 L1,7 L9,1 Z"></path></marker></defs><defs><marker id="graph-77_class-compositionStart-margin" class="marker composition class" refX="15" refY="7" markerWidth="190" markerHeight="240" orient="auto" markerUnits="userSpaceOnUse"><path viewBox="0 0 15 15" d="M 18,7 L9,13 L1,7 L9,1 Z" style="stroke-width: 0;"></path></marker></defs><defs><marker id="graph-77_class-compositionEnd-margin" class="marker composition class" refX="3.5" refY="7" markerWidth="20" markerHeight="28" orient="auto" markerUnits="userSpaceOnUse"><path d="M 18,7 L9,13 L1,7 L9,1 Z" style="stroke-width: 0;"></path></marker></defs><defs><marker id="graph-77_class-dependencyStart" class="marker dependency class" refX="6" refY="7" markerWidth="190" markerHeight="240" orient="auto"><path d="M 5,7 L9,13 L1,7 L9,1 Z"></path></marker></defs><defs><marker id="graph-77_class-dependencyEnd" class="marker dependency class" refX="13" refY="7" markerWidth="20" markerHeight="28" orient="auto"><path d="M 18,7 L9,13 L14,7 L9,1 Z"></path></marker></defs><defs><marker id="graph-77_class-dependencyStart-margin" class="marker dependency class" refX="4" refY="7" markerWidth="190" markerHeight="240" orient="auto" markerUnits="userSpaceOnUse"><path d="M 5,7 L9,13 L1,7 L9,1 Z" style="stroke-width: 0;"></path></marker></defs><defs><marker id="graph-77_class-dependencyEnd-margin" class="marker dependency class" refX="16" refY="7" markerWidth="20" markerHeight="28" orient="auto" markerUnits="userSpaceOnUse"><path d="M 18,7 L9,13 L14,7 L9,1 Z" style="stroke-width: 0;"></path></marker></defs><defs><marker id="graph-77_class-lollipopStart" class="marker lollipop class" refX="13" refY="7" markerWidth="190" markerHeight="240" orient="auto"><circle fill="transparent" cx="7" cy="7" r="6"></circle></marker></defs><defs><marker id="graph-77_class-lollipopEnd" class="marker lollipop class" refX="1" refY="7" markerWidth="190" markerHeight="240" orient="auto"><circle fill="transparent" cx="7" cy="7" r="6"></circle></marker></defs><defs><marker id="graph-77_class-lollipopStart-margin" class="marker lollipop class" refX="13" refY="7" markerWidth="190" markerHeight="240" orient="auto" markerUnits="userSpaceOnUse"><circle fill="transparent" cx="7" cy="7" r="6" stroke-width="2"></circle></marker></defs><defs><marker id="graph-77_class-lollipopEnd-margin" class="marker lollipop class" refX="1" refY="7" markerWidth="190" markerHeight="240" orient="auto" markerUnits="userSpaceOnUse"><circle fill="transparent" cx="7" cy="7" r="6" stroke-width="2"></circle></marker></defs><g class="root"><g class="clusters"></g><g class="edgePaths"><path d="M1183.594,154.573L1168.87,161.31C1154.147,168.048,1124.701,181.524,1109.977,197.929C1095.254,214.333,1095.254,233.667,1095.254,243.333L1095.254,253" id="graph-77-id_ReportInterface_ReportService_1" class="edge-thickness-normal edge-pattern-solid relation" style=";;;" data-edge="true" data-et="edge" data-id="id_ReportInterface_ReportService_1" data-points="W3sieCI6MTE5OS4yNzkyOTY4NzUsInkiOjE0Ny4zOTQzMDE5MDMzNTU4Mn0seyJ4IjoxMDk1LjI1MzkwNjI1LCJ5IjoxOTV9LHsieCI6MTA5NS4yNTM5MDYyNSwieSI6MjUzfV0=" data-look="classic" marker-start="url(#graph-77_class-extensionStart)"></path><path d="M1339.99,175.25L1339.99,178.542C1339.99,181.833,1339.99,188.417,1347.174,197.875C1354.358,207.333,1368.725,219.667,1375.909,225.833L1383.092,232" id="graph-77-id_ReportInterface_ReportDecorator_2" class="edge-thickness-normal edge-pattern-solid relation" style=";;;" data-edge="true" data-et="edge" data-id="id_ReportInterface_ReportDecorator_2" data-points="W3sieCI6MTMzOS45OTAyMzQzNzUsInkiOjE1OH0seyJ4IjoxMzM5Ljk5MDIzNDM3NSwieSI6MTk1fSx7IngiOjEzODMuMDkyMjAwNDEzMjIzLCJ5IjoyMzJ9XQ==" data-look="classic" marker-start="url(#graph-77_class-extensionStart)"></path><path d="M1265.603,337.791L1102.199,354.325C938.795,370.86,611.988,403.93,448.584,426.632C285.18,449.333,285.18,461.667,285.18,467.833L285.18,474" id="graph-77-id_ReportDecorator_CacheDecorator_3" class="edge-thickness-normal edge-pattern-solid relation" style=";;;" data-edge="true" data-et="edge" data-id="id_ReportDecorator_CacheDecorator_3" data-points="W3sieCI6MTI4Mi43NjU2MjUsInkiOjMzNi4wNTM4ODE1MzUxMDQzfSx7IngiOjI4NS4xNzk2ODc1LCJ5Ijo0Mzd9LHsieCI6Mjg1LjE3OTY4NzUsInkiOjQ3NH1d" data-look="classic" marker-start="url(#graph-77_class-extensionStart)"></path><path d="M1265.844,358.596L1199.856,371.663C1133.867,384.73,1001.891,410.865,935.902,430.099C869.914,449.333,869.914,461.667,869.914,467.833L869.914,474" id="graph-77-id_ReportDecorator_LoggingDecorator_4" class="edge-thickness-normal edge-pattern-solid relation" style=";;;" data-edge="true" data-et="edge" data-id="id_ReportDecorator_LoggingDecorator_4" data-points="W3sieCI6MTI4Mi43NjU2MjUsInkiOjM1NS4yNDQ3MDY2OTQ2MjQ5fSx7IngiOjg2OS45MTQwNjI1LCJ5Ijo0Mzd9LHsieCI6ODY5LjkxNDA2MjUsInkiOjQ3NH1d" data-look="classic" marker-start="url(#graph-77_class-extensionStart)"></path><path d="M1480.945,417.25L1480.945,420.542C1480.945,423.833,1480.945,430.417,1480.945,439.875C1480.945,449.333,1480.945,461.667,1480.945,467.833L1480.945,474" id="graph-77-id_ReportDecorator_CompressionDecorator_5" class="edge-thickness-normal edge-pattern-solid relation" style=";;;" data-edge="true" data-et="edge" data-id="id_ReportDecorator_CompressionDecorator_5" data-points="W3sieCI6MTQ4MC45NDUzMTI1LCJ5Ijo0MDB9LHsieCI6MTQ4MC45NDUzMTI1LCJ5Ijo0Mzd9LHsieCI6MTQ4MC45NDUzMTI1LCJ5Ijo0NzR9XQ==" data-look="classic" marker-start="url(#graph-77_class-extensionStart)"></path><path d="M1696.075,356.627L1767.007,370.023C1837.94,383.418,1979.804,410.209,2050.736,429.771C2121.668,449.333,2121.668,461.667,2121.668,467.833L2121.668,474" id="graph-77-id_ReportDecorator_EncryptionDecorator_6" class="edge-thickness-normal edge-pattern-solid relation" style=";;;" data-edge="true" data-et="edge" data-id="id_ReportDecorator_EncryptionDecorator_6" data-points="W3sieCI6MTY3OS4xMjUsInkiOjM1My40MjYwODc0ODY2NjM2fSx7IngiOjIxMjEuNjY3OTY4NzUsInkiOjQzN30seyJ4IjoyMTIxLjY2Nzk2ODc1LCJ5Ijo0NzR9XQ==" data-look="classic" marker-start="url(#graph-77_class-extensionStart)"></path><path d="M1696.295,336.827L1868.928,353.522C2041.561,370.218,2386.827,403.609,2559.461,426.471C2732.094,449.333,2732.094,461.667,2732.094,467.833L2732.094,474" id="graph-77-id_ReportDecorator_EmailDecorator_7" class="edge-thickness-normal edge-pattern-solid relation" style=";;;" data-edge="true" data-et="edge" data-id="id_ReportDecorator_EmailDecorator_7" data-points="W3sieCI6MTY3OS4xMjUsInkiOjMzNS4xNjYxODQ4MTc2OTg3Nn0seyJ4IjoyNzMyLjA5Mzc1LCJ5Ijo0Mzd9LHsieCI6MjczMi4wOTM3NSwieSI6NDc0fV0=" data-look="classic" marker-start="url(#graph-77_class-extensionStart)"></path><path d="M1509.704,232L1511.815,225.833C1513.926,219.667,1518.149,207.333,1511.07,195.523C1503.992,183.713,1485.612,172.427,1476.423,166.783L1467.233,161.14" id="graph-77-id_ReportDecorator_ReportInterface_8" class="edge-thickness-normal edge-pattern-solid relation" style=";;;" data-edge="true" data-et="edge" data-id="id_ReportDecorator_ReportInterface_8" data-points="W3sieCI6MTUwOS43MDM3MDYwOTUwNDEzLCJ5IjoyMzJ9LHsieCI6MTUyMi4zNzEwOTM3NSwieSI6MTk1fSx7IngiOjE0NjIuMTIwMjc0MTM1MDQ0NiwieSI6MTU4fV0=" data-look="classic" marker-end="url(#graph-77_class-dependencyEnd)"></path></g><g class="edgeLabels"><g class="edgeLabel" transform="translate(1095.25390625, 195)"><g class="label" data-id="id_ReportInterface_ReportService_1" transform="translate(-41.890625, -12)"><foreignObject width="83.78125" height="24"><div xmlns="http://www.w3.org/1999/xhtml" class="labelBkg" style="display: table-cell; white-space: nowrap; line-height: 1.5; max-width: 200px; text-align: center;"><span class="edgeLabel"><p>implements</p></span></div></foreignObject></g></g><g class="edgeLabel" transform="translate(1339.990234375, 195)"><g class="label" data-id="id_ReportInterface_ReportDecorator_2" transform="translate(-41.890625, -12)"><foreignObject width="83.78125" height="24"><div xmlns="http://www.w3.org/1999/xhtml" class="labelBkg" style="display: table-cell; white-space: nowrap; line-height: 1.5; max-width: 200px; text-align: center;"><span class="edgeLabel"><p>implements</p></span></div></foreignObject></g></g><g class="edgeLabel" transform="translate(285.1796875, 437)"><g class="label" data-id="id_ReportDecorator_CacheDecorator_3" transform="translate(-27.9765625, -12)"><foreignObject width="55.953125" height="24"><div xmlns="http://www.w3.org/1999/xhtml" class="labelBkg" style="display: table-cell; white-space: nowrap; line-height: 1.5; max-width: 200px; text-align: center;"><span class="edgeLabel"><p>extends</p></span></div></foreignObject></g></g><g class="edgeLabel" transform="translate(869.9140625, 437)"><g class="label" data-id="id_ReportDecorator_LoggingDecorator_4" transform="translate(-27.9765625, -12)"><foreignObject width="55.953125" height="24"><div xmlns="http://www.w3.org/1999/xhtml" class="labelBkg" style="display: table-cell; white-space: nowrap; line-height: 1.5; max-width: 200px; text-align: center;"><span class="edgeLabel"><p>extends</p></span></div></foreignObject></g></g><g class="edgeLabel" transform="translate(1480.9453125, 437)"><g class="label" data-id="id_ReportDecorator_CompressionDecorator_5" transform="translate(-27.9765625, -12)"><foreignObject width="55.953125" height="24"><div xmlns="http://www.w3.org/1999/xhtml" class="labelBkg" style="display: table-cell; white-space: nowrap; line-height: 1.5; max-width: 200px; text-align: center;"><span class="edgeLabel"><p>extends</p></span></div></foreignObject></g></g><g class="edgeLabel" transform="translate(2121.66796875, 437)"><g class="label" data-id="id_ReportDecorator_EncryptionDecorator_6" transform="translate(-27.9765625, -12)"><foreignObject width="55.953125" height="24"><div xmlns="http://www.w3.org/1999/xhtml" class="labelBkg" style="display: table-cell; white-space: nowrap; line-height: 1.5; max-width: 200px; text-align: center;"><span class="edgeLabel"><p>extends</p></span></div></foreignObject></g></g><g class="edgeLabel" transform="translate(2732.09375, 437)"><g class="label" data-id="id_ReportDecorator_EmailDecorator_7" transform="translate(-27.9765625, -12)"><foreignObject width="55.953125" height="24"><div xmlns="http://www.w3.org/1999/xhtml" class="labelBkg" style="display: table-cell; white-space: nowrap; line-height: 1.5; max-width: 200px; text-align: center;"><span class="edgeLabel"><p>extends</p></span></div></foreignObject></g></g><g class="edgeLabel" transform="translate(1508.90871, 186.73276)"><g class="label" data-id="id_ReportDecorator_ReportInterface_8" transform="translate(-20.9609375, -12)"><foreignObject width="41.921875" height="24"><div xmlns="http://www.w3.org/1999/xhtml" class="labelBkg" style="display: table-cell; white-space: nowrap; line-height: 1.5; max-width: 200px; text-align: center;"><span class="edgeLabel"><p>wraps</p></span></div></foreignObject></g></g></g><g class="nodes"><g class="node default" id="graph-77-classId-ReportInterface-115" data-look="classic" transform="translate(1339.990234375, 83)"><g class="basic label-container outer-path"><path d="M-140.7109375 -75 L140.7109375 -75 L140.7109375 75 L-140.7109375 75" stroke="none" stroke-width="0" fill="#ECECFF" style=""></path><path d="M-140.7109375 -75 C-50.50685993138539 -75, 39.697217637229215 -75, 140.7109375 -75 M-140.7109375 -75 C-84.36333012692829 -75, -28.01572275385658 -75, 140.7109375 -75 M140.7109375 -75 C140.7109375 -36.52448531148951, 140.7109375 1.951029377020987, 140.7109375 75 M140.7109375 -75 C140.7109375 -24.747354311990435, 140.7109375 25.50529137601913, 140.7109375 75 M140.7109375 75 C38.20752437390695 75, -64.2958887521861 75, -140.7109375 75 M140.7109375 75 C62.790236446853726 75, -15.130464606292549 75, -140.7109375 75 M-140.7109375 75 C-140.7109375 21.287869724444647, -140.7109375 -32.424260551110706, -140.7109375 -75 M-140.7109375 75 C-140.7109375 36.161389033640816, -140.7109375 -2.6772219327183677, -140.7109375 -75" stroke="#9370DB" stroke-width="1.3" fill="none" stroke-dasharray="0 0" style=""></path></g><g class="annotation-group text" transform="translate(-41.171875, -51)"><g class="label" style="" transform="translate(0,-12)"><foreignObject width="82.34375" height="24"><div xmlns="http://www.w3.org/1999/xhtml" style="display: table-cell; white-space: nowrap; line-height: 1.5; max-width: 142px; text-align: center;"><span class="nodeLabel markdown-node-label" style=""><p>«interface»</p></span></div></foreignObject></g></g><g class="label-group text" transform="translate(-59.3125, -27)"><g class="label" style="font-weight: bolder" transform="translate(0,-12)"><foreignObject width="118.625" height="24"><div xmlns="http://www.w3.org/1999/xhtml" style="display: table-cell; white-space: nowrap; line-height: 1.5; max-width: 179px; text-align: center;"><span class="nodeLabel markdown-node-label" style=""><p>ReportInterface</p></span></div></foreignObject></g></g><g class="members-group text" transform="translate(-128.7109375, 21)"></g><g class="methods-group text" transform="translate(-128.7109375, 51)"><g class="label" style="" transform="translate(0,-12)"><foreignObject width="198.109375" height="24"><div xmlns="http://www.w3.org/1999/xhtml" style="display: table-cell; white-space: nowrap; line-height: 1.5; max-width: 281px; text-align: center;"><span class="nodeLabel markdown-node-label" style=""><p>+generate(Report) : : string</p></span></div></foreignObject></g></g><g class="divider" style=""><path d="M-140.7109375 -3 C-75.42205744196995 -2.999768003535411, -10.133177383939909 -2.9995360070708217, 140.7109375 -2.999 M-140.7109375 -3 C-80.19554802326591 -2.9997849655806723, -19.68015854653183 -2.9995699311613446, 140.7109375 -2.999" stroke="#9370DB" stroke-width="1.3" fill="none" stroke-dasharray="0 0" style=""></path></g><g class="divider" style=""><path d="M-140.7109375 21 C-70.5084279564978 21.000249456477196, -0.3059184129955952 21.000498912954395, 140.7109375 21.001 M-140.7109375 21 C-33.02074520264327 21.000382664610907, 74.66944709471346 21.000765329221814, 140.7109375 21.001" stroke="#9370DB" stroke-width="1.3" fill="none" stroke-dasharray="0 0" style=""></path></g></g><g class="node default" id="graph-77-classId-ReportService-116" data-look="classic" transform="translate(1095.25390625, 316)"><g class="basic label-container outer-path"><path d="M-137.51171875 -63 L137.51171875 -63 L137.51171875 63 L-137.51171875 63" stroke="none" stroke-width="0" fill="#ECECFF" style=""></path><path d="M-137.51171875 -63 C-69.6895659173774 -63, -1.8674130847547872 -63, 137.51171875 -63 M-137.51171875 -63 C-68.04151346465491 -63, 1.428691820690176 -63, 137.51171875 -63 M137.51171875 -63 C137.51171875 -16.05086564514245, 137.51171875 30.898268709715097, 137.51171875 63 M137.51171875 -63 C137.51171875 -36.6096827115348, 137.51171875 -10.219365423069597, 137.51171875 63 M137.51171875 63 C48.351352709149396 63, -40.80901333170121 63, -137.51171875 63 M137.51171875 63 C68.7252959040448 63, -0.06112694191040191 63, -137.51171875 63 M-137.51171875 63 C-137.51171875 32.2157860551847, -137.51171875 1.4315721103694017, -137.51171875 -63 M-137.51171875 63 C-137.51171875 16.984384725282062, -137.51171875 -29.031230549435875, -137.51171875 -63" stroke="#9370DB" stroke-width="1.3" fill="none" stroke-dasharray="0 0" style=""></path></g><g class="annotation-group text" transform="translate(0, -39)"></g><g class="label-group text" transform="translate(-52.9140625, -39)"><g class="label" style="font-weight: bolder" transform="translate(0,-12)"><foreignObject width="105.828125" height="24"><div xmlns="http://www.w3.org/1999/xhtml" style="display: table-cell; white-space: nowrap; line-height: 1.5; max-width: 163px; text-align: center;"><span class="nodeLabel markdown-node-label" style=""><p>ReportService</p></span></div></foreignObject></g></g><g class="members-group text" transform="translate(-125.51171875, 9)"></g><g class="methods-group text" transform="translate(-125.51171875, 39)"><g class="label" style="" transform="translate(0,-12)"><foreignObject width="198.109375" height="24"><div xmlns="http://www.w3.org/1999/xhtml" style="display: table-cell; white-space: nowrap; line-height: 1.5; max-width: 281px; text-align: center;"><span class="nodeLabel markdown-node-label" style=""><p>+generate(Report) : : string</p></span></div></foreignObject></g></g><g class="divider" style=""><path d="M-137.51171875 -15 C-35.85840451092233 -14.999630383086027, 65.79490972815535 -14.999260766172053, 137.51171875 -14.999 M-137.51171875 -15 C-54.919821792879134 -14.999699691423729, 27.672075164241733 -14.999399382847455, 137.51171875 -14.999" stroke="#9370DB" stroke-width="1.3" fill="none" stroke-dasharray="0 0" style=""></path></g><g class="divider" style=""><path d="M-137.51171875 9 C-60.381010313899765 9.000280451401295, 16.74969812220047 9.000560902802592, 137.51171875 9.001 M-137.51171875 9 C-64.35910298653508 9.000265986842534, 8.793512776929845 9.000531973685067, 137.51171875 9.001" stroke="#9370DB" stroke-width="1.3" fill="none" stroke-dasharray="0 0" style=""></path></g></g><g class="node default" id="graph-77-classId-ReportDecorator-117" data-look="classic" transform="translate(1480.9453125, 316)"><g class="basic label-container outer-path"><path d="M-198.1796875 -84 L198.1796875 -84 L198.1796875 84 L-198.1796875 84" stroke="none" stroke-width="0" fill="#ECECFF" style=""></path><path d="M-198.1796875 -84 C-46.14887248269807 -84, 105.88194253460387 -84, 198.1796875 -84 M-198.1796875 -84 C-98.39061737048507 -84, 1.3984527590298512 -84, 198.1796875 -84 M198.1796875 -84 C198.1796875 -49.46684879382275, 198.1796875 -14.933697587645497, 198.1796875 84 M198.1796875 -84 C198.1796875 -28.088371239901704, 198.1796875 27.82325752019659, 198.1796875 84 M198.1796875 84 C79.47984854741806 84, -39.219990405163884 84, -198.1796875 84 M198.1796875 84 C92.29605469258748 84, -13.58757811482505 84, -198.1796875 84 M-198.1796875 84 C-198.1796875 17.98074244079922, -198.1796875 -48.03851511840156, -198.1796875 -84 M-198.1796875 84 C-198.1796875 36.21289531774491, -198.1796875 -11.574209364510182, -198.1796875 -84" stroke="#9370DB" stroke-width="1.3" fill="none" stroke-dasharray="0 0" style=""></path></g><g class="annotation-group text" transform="translate(0, -60)"></g><g class="label-group text" transform="translate(-62.171875, -60)"><g class="label" style="font-weight: bolder" transform="translate(0,-12)"><foreignObject width="124.34375" height="24"><div xmlns="http://www.w3.org/1999/xhtml" style="display: table-cell; white-space: nowrap; line-height: 1.5; max-width: 182px; text-align: center;"><span class="nodeLabel markdown-node-label" style=""><p>ReportDecorator</p></span></div></foreignObject></g></g><g class="members-group text" transform="translate(-186.1796875, -12)"><g class="label" style="" transform="translate(0,-12)"><foreignObject width="211.84375" height="24"><div xmlns="http://www.w3.org/1999/xhtml" style="display: table-cell; white-space: nowrap; line-height: 1.5; max-width: 298px; text-align: center;"><span class="nodeLabel markdown-node-label" style=""><p>-ReportInterface $component</p></span></div></foreignObject></g></g><g class="methods-group text" transform="translate(-186.1796875, 36)"><g class="label" style="" transform="translate(0,-12)"><foreignObject width="310.1875" height="24"><div xmlns="http://www.w3.org/1999/xhtml" style="display: table-cell; white-space: nowrap; line-height: 1.5; max-width: 407px; text-align: center;"><span class="nodeLabel markdown-node-label" style=""><p>+__construct(ReportInterface $component)</p></span></div></foreignObject></g><g class="label" style="" transform="translate(0,12)"><foreignObject width="198.109375" height="24"><div xmlns="http://www.w3.org/1999/xhtml" style="display: table-cell; white-space: nowrap; line-height: 1.5; max-width: 281px; text-align: center;"><span class="nodeLabel markdown-node-label" style=""><p>+generate(Report) : : string</p></span></div></foreignObject></g></g><g class="divider" style=""><path d="M-198.1796875 -36 C-47.040663313417895 -35.999618681848546, 104.09836087316421 -35.99923736369709, 198.1796875 -35.999 M-198.1796875 -36 C-77.62647219597083 -35.99969584870976, 42.92674310805833 -35.999391697419526, 198.1796875 -35.999" stroke="#9370DB" stroke-width="1.3" fill="none" stroke-dasharray="0 0" style=""></path></g><g class="divider" style=""><path d="M-198.1796875 12 C-104.86291340033183 12.000235434759427, -11.546139300663668 12.000470869518853, 198.1796875 12.001 M-198.1796875 12 C-56.640444536855256 12.000357098259535, 84.89879842628949 12.000714196519072, 198.1796875 12.001" stroke="#9370DB" stroke-width="1.3" fill="none" stroke-dasharray="0 0" style=""></path></g></g><g class="node default" id="graph-77-classId-CacheDecorator-118" data-look="classic" transform="translate(285.1796875, 558)"><g class="basic label-container outer-path"><path d="M-277.1796875 -84 L277.1796875 -84 L277.1796875 84 L-277.1796875 84" stroke="none" stroke-width="0" fill="#ECECFF" style=""></path><path d="M-277.1796875 -84 C-164.77167078551003 -84, -52.36365407102005 -84, 277.1796875 -84 M-277.1796875 -84 C-140.14968790071688 -84, -3.1196883014337686 -84, 277.1796875 -84 M277.1796875 -84 C277.1796875 -45.34905544696576, 277.1796875 -6.6981108939315135, 277.1796875 84 M277.1796875 -84 C277.1796875 -46.36359200022218, 277.1796875 -8.727184000444353, 277.1796875 84 M277.1796875 84 C81.56809647578046 84, -114.04349454843907 84, -277.1796875 84 M277.1796875 84 C110.94268203698189 84, -55.294323426036215 84, -277.1796875 84 M-277.1796875 84 C-277.1796875 37.988858740357045, -277.1796875 -8.022282519285909, -277.1796875 -84 M-277.1796875 84 C-277.1796875 37.12488456408435, -277.1796875 -9.750230871831306, -277.1796875 -84" stroke="#9370DB" stroke-width="1.3" fill="none" stroke-dasharray="0 0" style=""></path></g><g class="annotation-group text" transform="translate(0, -60)"></g><g class="label-group text" transform="translate(-59.5, -60)"><g class="label" style="font-weight: bolder" transform="translate(0,-12)"><foreignObject width="119" height="24"><div xmlns="http://www.w3.org/1999/xhtml" style="display: table-cell; white-space: nowrap; line-height: 1.5; max-width: 175px; text-align: center;"><span class="nodeLabel markdown-node-label" style=""><p>CacheDecorator</p></span></div></foreignObject></g></g><g class="members-group text" transform="translate(-265.1796875, -12)"><g class="label" style="" transform="translate(0,-12)"><foreignObject width="155.859375" height="24"><div xmlns="http://www.w3.org/1999/xhtml" style="display: table-cell; white-space: nowrap; line-height: 1.5; max-width: 231px; text-align: center;"><span class="nodeLabel markdown-node-label" style=""><p>-CacheService $cache</p></span></div></foreignObject></g></g><g class="methods-group text" transform="translate(-265.1796875, 36)"><g class="label" style="" transform="translate(0,-12)"><foreignObject width="470.859375" height="24"><div xmlns="http://www.w3.org/1999/xhtml" style="display: table-cell; white-space: nowrap; line-height: 1.5; max-width: 581px; text-align: center;"><span class="nodeLabel markdown-node-label" style=""><p>+__construct(ReportInterface $component, CacheService $cache)</p></span></div></foreignObject></g><g class="label" style="" transform="translate(0,12)"><foreignObject width="198.109375" height="24"><div xmlns="http://www.w3.org/1999/xhtml" style="display: table-cell; white-space: nowrap; line-height: 1.5; max-width: 281px; text-align: center;"><span class="nodeLabel markdown-node-label" style=""><p>+generate(Report) : : string</p></span></div></foreignObject></g></g><g class="divider" style=""><path d="M-277.1796875 -36 C-117.41367985772908 -35.99971180065703, 42.35232778454184 -35.99942360131407, 277.1796875 -35.999 M-277.1796875 -36 C-152.35147713007166 -35.9997748243901, -27.523266760143287 -35.999549648780196, 277.1796875 -35.999" stroke="#9370DB" stroke-width="1.3" fill="none" stroke-dasharray="0 0" style=""></path></g><g class="divider" style=""><path d="M-277.1796875 12 C-112.108374276657 12.000297769498754, 52.962938946685995 12.000595538997509, 277.1796875 12.001 M-277.1796875 12 C-73.9636146910889 12.000366578219785, 129.2524581178222 12.000733156439571, 277.1796875 12.001" stroke="#9370DB" stroke-width="1.3" fill="none" stroke-dasharray="0 0" style=""></path></g></g><g class="node default" id="graph-77-classId-LoggingDecorator-119" data-look="classic" transform="translate(869.9140625, 558)"><g class="basic label-container outer-path"><path d="M-257.5546875 -84 L257.5546875 -84 L257.5546875 84 L-257.5546875 84" stroke="none" stroke-width="0" fill="#ECECFF" style=""></path><path d="M-257.5546875 -84 C-114.13480581310364 -84, 29.28507587379272 -84, 257.5546875 -84 M-257.5546875 -84 C-75.12274868618081 -84, 107.30919012763837 -84, 257.5546875 -84 M257.5546875 -84 C257.5546875 -21.27545207094868, 257.5546875 41.44909585810264, 257.5546875 84 M257.5546875 -84 C257.5546875 -31.662301843807946, 257.5546875 20.67539631238411, 257.5546875 84 M257.5546875 84 C153.39797169273072 84, 49.24125588546144 84, -257.5546875 84 M257.5546875 84 C52.547654189370235 84, -152.45937912125953 84, -257.5546875 84 M-257.5546875 84 C-257.5546875 21.502957644032477, -257.5546875 -40.994084711935045, -257.5546875 -84 M-257.5546875 84 C-257.5546875 17.99568778158931, -257.5546875 -48.00862443682138, -257.5546875 -84" stroke="#9370DB" stroke-width="1.3" fill="none" stroke-dasharray="0 0" style=""></path></g><g class="annotation-group text" transform="translate(0, -60)"></g><g class="label-group text" transform="translate(-65.015625, -60)"><g class="label" style="font-weight: bolder" transform="translate(0,-12)"><foreignObject width="130.03125" height="24"><div xmlns="http://www.w3.org/1999/xhtml" style="display: table-cell; white-space: nowrap; line-height: 1.5; max-width: 191px; text-align: center;"><span class="nodeLabel markdown-node-label" style=""><p>LoggingDecorator</p></span></div></foreignObject></g></g><g class="members-group text" transform="translate(-245.5546875, -12)"><g class="label" style="" transform="translate(0,-12)"><foreignObject width="111.09375" height="24"><div xmlns="http://www.w3.org/1999/xhtml" style="display: table-cell; white-space: nowrap; line-height: 1.5; max-width: 186px; text-align: center;"><span class="nodeLabel markdown-node-label" style=""><p>-Logger $logger</p></span></div></foreignObject></g></g><g class="methods-group text" transform="translate(-245.5546875, 36)"><g class="label" style="" transform="translate(0,-12)"><foreignObject width="426.09375" height="24"><div xmlns="http://www.w3.org/1999/xhtml" style="display: table-cell; white-space: nowrap; line-height: 1.5; max-width: 536px; text-align: center;"><span class="nodeLabel markdown-node-label" style=""><p>+__construct(ReportInterface $component, Logger $logger)</p></span></div></foreignObject></g><g class="label" style="" transform="translate(0,12)"><foreignObject width="198.109375" height="24"><div xmlns="http://www.w3.org/1999/xhtml" style="display: table-cell; white-space: nowrap; line-height: 1.5; max-width: 281px; text-align: center;"><span class="nodeLabel markdown-node-label" style=""><p>+generate(Report) : : string</p></span></div></foreignObject></g></g><g class="divider" style=""><path d="M-257.5546875 -36 C-96.64894239378842 -35.999687628001126, 64.25680271242317 -35.99937525600226, 257.5546875 -35.999 M-257.5546875 -36 C-145.93390643788558 -35.99978330664034, -34.313125375771165 -35.99956661328068, 257.5546875 -35.999" stroke="#9370DB" stroke-width="1.3" fill="none" stroke-dasharray="0 0" style=""></path></g><g class="divider" style=""><path d="M-257.5546875 12 C-132.1715499321241 12.000243410707808, -6.788412364248188 12.000486821415619, 257.5546875 12.001 M-257.5546875 12 C-92.77482890076331 12.000319892952053, 72.00502969847338 12.000639785904108, 257.5546875 12.001" stroke="#9370DB" stroke-width="1.3" fill="none" stroke-dasharray="0 0" style=""></path></g></g><g class="node default" id="graph-77-classId-CompressionDecorator-120" data-look="classic" transform="translate(1480.9453125, 558)"><g class="basic label-container outer-path"><path d="M-303.4765625 -84 L303.4765625 -84 L303.4765625 84 L-303.4765625 84" stroke="none" stroke-width="0" fill="#ECECFF" style=""></path><path d="M-303.4765625 -84 C-130.19717044760483 -84, 43.082221604790334 -84, 303.4765625 -84 M-303.4765625 -84 C-143.66294100013204 -84, 16.150680499735927 -84, 303.4765625 -84 M303.4765625 -84 C303.4765625 -42.3765941398601, 303.4765625 -0.7531882797202059, 303.4765625 84 M303.4765625 -84 C303.4765625 -36.331591738801976, 303.4765625 11.336816522396049, 303.4765625 84 M303.4765625 84 C129.2400667325435 84, -44.99642903491298 84, -303.4765625 84 M303.4765625 84 C66.54534838844435 84, -170.3858657231113 84, -303.4765625 84 M-303.4765625 84 C-303.4765625 24.055657480365937, -303.4765625 -35.888685039268125, -303.4765625 -84 M-303.4765625 84 C-303.4765625 31.963990750664323, -303.4765625 -20.072018498671355, -303.4765625 -84" stroke="#9370DB" stroke-width="1.3" fill="none" stroke-dasharray="0 0" style=""></path></g><g class="annotation-group text" transform="translate(0, -60)"></g><g class="label-group text" transform="translate(-84.40625, -60)"><g class="label" style="font-weight: bolder" transform="translate(0,-12)"><foreignObject width="168.8125" height="24"><div xmlns="http://www.w3.org/1999/xhtml" style="display: table-cell; white-space: nowrap; line-height: 1.5; max-width: 230px; text-align: center;"><span class="nodeLabel markdown-node-label" style=""><p>CompressionDecorator</p></span></div></foreignObject></g></g><g class="members-group text" transform="translate(-291.4765625, -12)"><g class="label" style="" transform="translate(0,-12)"><foreignObject width="183.546875" height="24"><div xmlns="http://www.w3.org/1999/xhtml" style="display: table-cell; white-space: nowrap; line-height: 1.5; max-width: 266px; text-align: center;"><span class="nodeLabel markdown-node-label" style=""><p>-Compressor $compressor</p></span></div></foreignObject></g></g><g class="methods-group text" transform="translate(-291.4765625, 36)"><g class="label" style="" transform="translate(0,-12)"><foreignObject width="498.546875" height="24"><div xmlns="http://www.w3.org/1999/xhtml" style="display: table-cell; white-space: nowrap; line-height: 1.5; max-width: 616px; text-align: center;"><span class="nodeLabel markdown-node-label" style=""><p>+__construct(ReportInterface $component, Compressor $compressor)</p></span></div></foreignObject></g><g class="label" style="" transform="translate(0,12)"><foreignObject width="198.109375" height="24"><div xmlns="http://www.w3.org/1999/xhtml" style="display: table-cell; white-space: nowrap; line-height: 1.5; max-width: 281px; text-align: center;"><span class="nodeLabel markdown-node-label" style=""><p>+generate(Report) : : string</p></span></div></foreignObject></g></g><g class="divider" style=""><path d="M-303.4765625 -36 C-81.47482955906054 -35.99963423578561, 140.52690338187892 -35.999268471571206, 303.4765625 -35.999 M-303.4765625 -36 C-98.46713924723866 -35.99966223186799, 106.54228400552267 -35.99932446373597, 303.4765625 -35.999" stroke="#9370DB" stroke-width="1.3" fill="none" stroke-dasharray="0 0" style=""></path></g><g class="divider" style=""><path d="M-303.4765625 12 C-62.514841151773 12.000397002192464, 178.446880196454 12.000794004384929, 303.4765625 12.001 M-303.4765625 12 C-156.14724001110923 12.000242735915544, -8.817917522218465 12.000485471831087, 303.4765625 12.001" stroke="#9370DB" stroke-width="1.3" fill="none" stroke-dasharray="0 0" style=""></path></g></g><g class="node default" id="graph-77-classId-EncryptionDecorator-121" data-look="classic" transform="translate(2121.66796875, 558)"><g class="basic label-container outer-path"><path d="M-287.24609375 -84 L287.24609375 -84 L287.24609375 84 L-287.24609375 84" stroke="none" stroke-width="0" fill="#ECECFF" style=""></path><path d="M-287.24609375 -84 C-154.82843851200673 -84, -22.410783274013454 -84, 287.24609375 -84 M-287.24609375 -84 C-167.03393913040227 -84, -46.82178451080455 -84, 287.24609375 -84 M287.24609375 -84 C287.24609375 -37.49250507823965, 287.24609375 9.014989843520695, 287.24609375 84 M287.24609375 -84 C287.24609375 -24.473953940603437, 287.24609375 35.05209211879313, 287.24609375 84 M287.24609375 84 C121.3106064201811 84, -44.624880909637795 84, -287.24609375 84 M287.24609375 84 C68.48619002814169 84, -150.27371369371662 84, -287.24609375 84 M-287.24609375 84 C-287.24609375 35.531629346913206, -287.24609375 -12.936741306173587, -287.24609375 -84 M-287.24609375 84 C-287.24609375 49.942417146028724, -287.24609375 15.884834292057448, -287.24609375 -84" stroke="#9370DB" stroke-width="1.3" fill="none" stroke-dasharray="0 0" style=""></path></g><g class="annotation-group text" transform="translate(0, -60)"></g><g class="label-group text" transform="translate(-77.4296875, -60)"><g class="label" style="font-weight: bolder" transform="translate(0,-12)"><foreignObject width="154.859375" height="24"><div xmlns="http://www.w3.org/1999/xhtml" style="display: table-cell; white-space: nowrap; line-height: 1.5; max-width: 213px; text-align: center;"><span class="nodeLabel markdown-node-label" style=""><p>EncryptionDecorator</p></span></div></foreignObject></g></g><g class="members-group text" transform="translate(-275.24609375, -12)"><g class="label" style="" transform="translate(0,-12)"><foreignObject width="158.0625" height="24"><div xmlns="http://www.w3.org/1999/xhtml" style="display: table-cell; white-space: nowrap; line-height: 1.5; max-width: 237px; text-align: center;"><span class="nodeLabel markdown-node-label" style=""><p>-Encryptor $encryptor</p></span></div></foreignObject></g></g><g class="methods-group text" transform="translate(-275.24609375, 36)"><g class="label" style="" transform="translate(0,-12)"><foreignObject width="473.0625" height="24"><div xmlns="http://www.w3.org/1999/xhtml" style="display: table-cell; white-space: nowrap; line-height: 1.5; max-width: 587px; text-align: center;"><span class="nodeLabel markdown-node-label" style=""><p>+__construct(ReportInterface $component, Encryptor $encryptor)</p></span></div></foreignObject></g><g class="label" style="" transform="translate(0,12)"><foreignObject width="198.109375" height="24"><div xmlns="http://www.w3.org/1999/xhtml" style="display: table-cell; white-space: nowrap; line-height: 1.5; max-width: 281px; text-align: center;"><span class="nodeLabel markdown-node-label" style=""><p>+generate(Report) : : string</p></span></div></foreignObject></g></g><g class="divider" style=""><path d="M-287.24609375 -36 C-73.58746031657674 -35.99962809131598, 140.07117311684652 -35.99925618263196, 287.24609375 -35.999 M-287.24609375 -36 C-93.78539165118431 -35.99966324920285, 99.67531044763138 -35.99932649840569, 287.24609375 -35.999" stroke="#9370DB" stroke-width="1.3" fill="none" stroke-dasharray="0 0" style=""></path></g><g class="divider" style=""><path d="M-287.24609375 12 C-141.517076118001 12.000253665795293, 4.211941513997999 12.000507331590587, 287.24609375 12.001 M-287.24609375 12 C-131.61203334484824 12.000270907183408, 24.022027060303515 12.000541814366814, 287.24609375 12.001" stroke="#9370DB" stroke-width="1.3" fill="none" stroke-dasharray="0 0" style=""></path></g></g><g class="node default" id="graph-77-classId-EmailDecorator-122" data-look="classic" transform="translate(2732.09375, 558)"><g class="basic label-container outer-path"><path d="M-273.1796875 -84 L273.1796875 -84 L273.1796875 84 L-273.1796875 84" stroke="none" stroke-width="0" fill="#ECECFF" style=""></path><path d="M-273.1796875 -84 C-126.02918723948716 -84, 21.121313021025685 -84, 273.1796875 -84 M-273.1796875 -84 C-139.6162859990189 -84, -6.052884498037827 -84, 273.1796875 -84 M273.1796875 -84 C273.1796875 -18.56541804935995, 273.1796875 46.8691639012801, 273.1796875 84 M273.1796875 -84 C273.1796875 -49.38042862878355, 273.1796875 -14.760857257567096, 273.1796875 84 M273.1796875 84 C122.32689611741645 84, -28.525895265167094 84, -273.1796875 84 M273.1796875 84 C81.35371425023666 84, -110.47225899952667 84, -273.1796875 84 M-273.1796875 84 C-273.1796875 23.24824983715569, -273.1796875 -37.50350032568862, -273.1796875 -84 M-273.1796875 84 C-273.1796875 18.18471944911964, -273.1796875 -47.63056110176072, -273.1796875 -84" stroke="#9370DB" stroke-width="1.3" fill="none" stroke-dasharray="0 0" style=""></path></g><g class="annotation-group text" transform="translate(0, -60)"></g><g class="label-group text" transform="translate(-57.34375, -60)"><g class="label" style="font-weight: bolder" transform="translate(0,-12)"><foreignObject width="114.6875" height="24"><div xmlns="http://www.w3.org/1999/xhtml" style="display: table-cell; white-space: nowrap; line-height: 1.5; max-width: 171px; text-align: center;"><span class="nodeLabel markdown-node-label" style=""><p>EmailDecorator</p></span></div></foreignObject></g></g><g class="members-group text" transform="translate(-261.1796875, -12)"><g class="label" style="" transform="translate(0,-12)"><foreignObject width="150.015625" height="24"><div xmlns="http://www.w3.org/1999/xhtml" style="display: table-cell; white-space: nowrap; line-height: 1.5; max-width: 227px; text-align: center;"><span class="nodeLabel markdown-node-label" style=""><p>-EmailService $email</p></span></div></foreignObject></g></g><g class="methods-group text" transform="translate(-261.1796875, 36)"><g class="label" style="" transform="translate(0,-12)"><foreignObject width="465.015625" height="24"><div xmlns="http://www.w3.org/1999/xhtml" style="display: table-cell; white-space: nowrap; line-height: 1.5; max-width: 578px; text-align: center;"><span class="nodeLabel markdown-node-label" style=""><p>+__construct(ReportInterface $component, EmailService $email)</p></span></div></foreignObject></g><g class="label" style="" transform="translate(0,12)"><foreignObject width="198.109375" height="24"><div xmlns="http://www.w3.org/1999/xhtml" style="display: table-cell; white-space: nowrap; line-height: 1.5; max-width: 281px; text-align: center;"><span class="nodeLabel markdown-node-label" style=""><p>+generate(Report) : : string</p></span></div></foreignObject></g></g><g class="divider" style=""><path d="M-273.1796875 -36 C-147.15873604446978 -35.99976934421331, -21.137784588939553 -35.999538688426625, 273.1796875 -35.999 M-273.1796875 -36 C-60.38717394431063 -35.9996105264716, 152.40533961137874 -35.9992210529432, 273.1796875 -35.999" stroke="#9370DB" stroke-width="1.3" fill="none" stroke-dasharray="0 0" style=""></path></g><g class="divider" style=""><path d="M-273.1796875 12 C-63.18721334987836 12.00038434862429, 146.80526080024327 12.000768697248583, 273.1796875 12.001 M-273.1796875 12 C-104.55710501842967 12.00030862943, 64.06547746314067 12.00061725886, 273.1796875 12.001" stroke="#9370DB" stroke-width="1.3" fill="none" stroke-dasharray="0 0" style=""></path></g></g></g></g></g></g></svg>