<?xml version="1.0" encoding="UTF-8"?>
<?xml-stylesheet href="https://cdnjs.cloudflare.com/ajax/libs/font-awesome/7.2.0/css/all.min.css" type="text/css"?>
<svg id="graph-144" width="100%" xmlns="http://www.w3.org/2000/svg" class="classDiagram" style="overflow: hidden; max-width: 100%; touch-action: none; user-select: none; -webkit-user-drag: none; -webkit-tap-highlight-color: rgba(0, 0, 0, 0); background-color: rgb(255, 255, 255);" role="graphics-document document" aria-roledescription="class" height="100%" xmlns:xlink="http://www.w3.org/1999/xlink" xmlns:ev="http://www.w3.org/2001/xml-events"><defs><filter id="graph-144-drop-shadow" height="130%" width="130%"><feDropShadow dx="4" dy="4" stdDeviation="0" flood-opacity="0.06" flood-color="#000000"></feDropShadow></filter></defs><defs><filter id="graph-144-drop-shadow-small" height="150%" width="150%"><feDropShadow dx="2" dy="2" stdDeviation="0" flood-opacity="0.06" flood-color="#000000"></feDropShadow></filter></defs><g id="viewport-20260730183816257" class="svg-pan-zoom_viewport" transform="matrix(1.1250801540973807,0,0,1.1250801540973807,101.67929805012733,-130.28620753613689)" style="transform: matrix(1.12508, 0, 0, 1.12508, 101.679, -130.286);"><style>#graph-144{font-family:"trebuchet ms",verdana,arial,sans-serif;font-size:16px;fill:#333;}@keyframes edge-animation-frame{from{stroke-dashoffset:0;}}@keyframes dash{to{stroke-dashoffset:0;}}#graph-144 .edge-animation-slow{stroke-dasharray:9,5!important;stroke-dashoffset:900;animation:dash 50s linear infinite;stroke-linecap:round;}#graph-144 .edge-animation-fast{stroke-dasharray:9,5!important;stroke-dashoffset:900;animation:dash 20s linear infinite;stroke-linecap:round;}#graph-144 .error-icon{fill:#552222;}#graph-144 .error-text{fill:#552222;stroke:#552222;}#graph-144 .edge-thickness-normal{stroke-width:1px;}#graph-144 .edge-thickness-thick{stroke-width:3.5px;}#graph-144 .edge-pattern-solid{stroke-dasharray:0;}#graph-144 .edge-thickness-invisible{stroke-width:0;fill:none;}#graph-144 .edge-pattern-dashed{stroke-dasharray:3;}#graph-144 .edge-pattern-dotted{stroke-dasharray:2;}#graph-144 .marker{fill:#333333;stroke:#333333;}#graph-144 .marker.cross{stroke:#333333;}#graph-144 svg{font-family:"trebuchet ms",verdana,arial,sans-serif;font-size:16px;}#graph-144 p{margin:0;}#graph-144 g.classGroup text{fill:#9370DB;stroke:none;font-family:"trebuchet ms",verdana,arial,sans-serif;font-size:10px;}#graph-144 g.classGroup text .title{font-weight:bolder;}#graph-144 .cluster-label text{fill:#333;}#graph-144 .cluster-label span{color:#333;}#graph-144 .cluster-label span p{background-color:transparent;}#graph-144 .cluster rect{fill:#ffffde;stroke:#aaaa33;stroke-width:1px;}#graph-144 .cluster text{fill:#333;}#graph-144 .cluster span{color:#333;}#graph-144 .nodeLabel,#graph-144 .edgeLabel{color:#131300;}#graph-144 .noteLabel .nodeLabel,#graph-144 .noteLabel .edgeLabel{color:black;}#graph-144 .edgeLabel .label rect{fill:#ECECFF;}#graph-144 .label text{fill:#131300;}#graph-144 .labelBkg{background:#ECECFF;}#graph-144 .edgeLabel .label span{background:#ECECFF;}#graph-144 .classTitle{font-weight:bolder;}#graph-144 .node rect,#graph-144 .node circle,#graph-144 .node ellipse,#graph-144 .node polygon,#graph-144 .node path{fill:#ECECFF;stroke:#9370DB;stroke-width:1;}#graph-144 .divider{stroke:#9370DB;stroke-width:1;}#graph-144 g.clickable{cursor:pointer;}#graph-144 g.classGroup rect{fill:#ECECFF;stroke:#9370DB;}#graph-144 g.classGroup line{stroke:#9370DB;stroke-width:1;}#graph-144 .classLabel .box{stroke:none;stroke-width:0;fill:#ECECFF;opacity:0.5;}#graph-144 .classLabel .label{fill:#9370DB;font-size:10px;}#graph-144 .relation{stroke:#333333;stroke-width:1;fill:none;}#graph-144 .dashed-line{stroke-dasharray:3;}#graph-144 .dotted-line{stroke-dasharray:1 2;}#graph-144 [id$="-compositionStart"],#graph-144 .composition{fill:#333333!important;stroke:#333333!important;stroke-width:1;}#graph-144 [id$="-compositionEnd"],#graph-144 .composition{fill:#333333!important;stroke:#333333!important;stroke-width:1;}#graph-144 [id$="-dependencyStart"],#graph-144 .dependency{fill:#333333!important;stroke:#333333!important;stroke-width:1;}#graph-144 [id$="-dependencyEnd"],#graph-144 .dependency{fill:#333333!important;stroke:#333333!important;stroke-width:1;}#graph-144 [id$="-extensionStart"],#graph-144 .extension{fill:transparent!important;stroke:#333333!important;stroke-width:1;}#graph-144 [id$="-extensionEnd"],#graph-144 .extension{fill:transparent!important;stroke:#333333!important;stroke-width:1;}#graph-144 [id$="-aggregationStart"],#graph-144 .aggregation{fill:transparent!important;stroke:#333333!important;stroke-width:1;}#graph-144 [id$="-aggregationEnd"],#graph-144 .aggregation{fill:transparent!important;stroke:#333333!important;stroke-width:1;}#graph-144 [id$="-lollipopStart"],#graph-144 .lollipop{fill:#ECECFF!important;stroke:#333333!important;stroke-width:1;}#graph-144 [id$="-lollipopEnd"],#graph-144 .lollipop{fill:#ECECFF!important;stroke:#333333!important;stroke-width:1;}#graph-144 .edgeTerminals{font-size:11px;line-height:initial;}#graph-144 .classTitleText{text-anchor:middle;font-size:18px;fill:#333;}#graph-144 .edgeLabel[data-look="neo"]{background-color:rgba(232,232,232, 0.8);text-align:center;}#graph-144 .edgeLabel[data-look="neo"] p{background-color:rgba(232,232,232, 0.8);}#graph-144 .edgeLabel[data-look="neo"] rect{opacity:0.5;background-color:rgba(232,232,232, 0.8);fill:rgba(232,232,232, 0.8);}#graph-144 .label-icon{display:inline-block;height:1em;overflow:visible;vertical-align:-0.125em;}#graph-144 .node .label-icon path{fill:currentColor;stroke:revert;stroke-width:revert;}#graph-144 .node .neo-node{stroke:#9370DB;}#graph-144 [data-look="neo"].node rect,#graph-144 [data-look="neo"].cluster rect,#graph-144 [data-look="neo"].node polygon{stroke:#9370DB;filter:drop-shadow(1px 2px 2px rgba(185, 185, 185, 1));}#graph-144 [data-look="neo"].swimlane.cluster rect{filter:none;}#graph-144 [data-look="neo"].node path{stroke:#9370DB;stroke-width:1px;}#graph-144 [data-look="neo"].node .outer-path{filter:drop-shadow(1px 2px 2px rgba(185, 185, 185, 1));}#graph-144 [data-look="neo"].node .neo-line path{stroke:#9370DB;filter:none;}#graph-144 [data-look="neo"].node circle{stroke:#9370DB;filter:drop-shadow(1px 2px 2px rgba(185, 185, 185, 1));}#graph-144 [data-look="neo"].node circle .state-start{fill:#000000;}#graph-144 [data-look="neo"].icon-shape .icon{fill:#9370DB;filter:drop-shadow(1px 2px 2px rgba(185, 185, 185, 1));}#graph-144 [data-look="neo"].icon-shape .icon-neo path{stroke:#9370DB;filter:drop-shadow(1px 2px 2px rgba(185, 185, 185, 1));}#graph-144 :root{--mermaid-font-family:"trebuchet ms",verdana,arial,sans-serif;}</style><g><defs><marker id="graph-144_class-aggregationStart" class="marker aggregation class" refX="18" refY="7" markerWidth="190" markerHeight="240" orient="auto"><path d="M 18,7 L9,13 L1,7 L9,1 Z"></path></marker></defs><defs><marker id="graph-144_class-aggregationEnd" class="marker aggregation class" refX="1" refY="7" markerWidth="20" markerHeight="28" orient="auto"><path d="M 18,7 L9,13 L1,7 L9,1 Z"></path></marker></defs><defs><marker id="graph-144_class-aggregationStart-margin" class="marker aggregation class" refX="15" refY="7" markerWidth="190" markerHeight="240" orient="auto" markerUnits="userSpaceOnUse"><path d="M 18,7 L9,13 L1,7 L9,1 Z" style="stroke-width: 2;"></path></marker></defs><defs><marker id="graph-144_class-aggregationEnd-margin" class="marker aggregation class" refX="1" refY="7" markerWidth="20" markerHeight="28" orient="auto" markerUnits="userSpaceOnUse"><path d="M 18,7 L9,13 L1,7 L9,1 Z" style="stroke-width: 2;"></path></marker></defs><defs><marker id="graph-144_class-extensionStart" class="marker extension class" refX="18" refY="7" markerWidth="20" markerHeight="28" orient="auto" markerUnits="userSpaceOnUse"><path d="M 1,7 L18,13 V 1 Z"></path></marker></defs><defs><marker id="graph-144_class-extensionEnd" class="marker extension class" refX="1" refY="7" markerWidth="20" markerHeight="28" orient="auto"><path d="M 1,1 V 13 L18,7 Z"></path></marker></defs><marker id="graph-144_class-extensionStart-margin" class="marker extension class" refX="18" refY="7" markerWidth="20" markerHeight="28" orient="auto" markerUnits="userSpaceOnUse" viewBox="0 0 20 14"><polygon points="10,7 18,13 18,1" style="stroke-width: 2; stroke-dasharray: 0;"></polygon></marker><defs><marker id="graph-144_class-extensionEnd-margin" class="marker extension class" refX="9" refY="7" markerWidth="20" markerHeight="28" orient="auto" markerUnits="userSpaceOnUse" viewBox="0 0 20 14"><polygon points="10,1 10,13 18,7" style="stroke-width: 2; stroke-dasharray: 0;"></polygon></marker></defs><defs><marker id="graph-144_class-compositionStart" class="marker composition class" refX="18" refY="7" markerWidth="190" markerHeight="240" orient="auto"><path d="M 18,7 L9,13 L1,7 L9,1 Z"></path></marker></defs><defs><marker id="graph-144_class-compositionEnd" class="marker composition class" refX="1" refY="7" markerWidth="20" markerHeight="28" orient="auto"><path d="M 18,7 L9,13 L1,7 L9,1 Z"></path></marker></defs><defs><marker id="graph-144_class-compositionStart-margin" class="marker composition class" refX="15" refY="7" markerWidth="190" markerHeight="240" orient="auto" markerUnits="userSpaceOnUse"><path viewBox="0 0 15 15" d="M 18,7 L9,13 L1,7 L9,1 Z" style="stroke-width: 0;"></path></marker></defs><defs><marker id="graph-144_class-compositionEnd-margin" class="marker composition class" refX="3.5" refY="7" markerWidth="20" markerHeight="28" orient="auto" markerUnits="userSpaceOnUse"><path d="M 18,7 L9,13 L1,7 L9,1 Z" style="stroke-width: 0;"></path></marker></defs><defs><marker id="graph-144_class-dependencyStart" class="marker dependency class" refX="6" refY="7" markerWidth="190" markerHeight="240" orient="auto"><path d="M 5,7 L9,13 L1,7 L9,1 Z"></path></marker></defs><defs><marker id="graph-144_class-dependencyEnd" class="marker dependency class" refX="13" refY="7" markerWidth="20" markerHeight="28" orient="auto"><path d="M 18,7 L9,13 L14,7 L9,1 Z"></path></marker></defs><defs><marker id="graph-144_class-dependencyStart-margin" class="marker dependency class" refX="4" refY="7" markerWidth="190" markerHeight="240" orient="auto" markerUnits="userSpaceOnUse"><path d="M 5,7 L9,13 L1,7 L9,1 Z" style="stroke-width: 0;"></path></marker></defs><defs><marker id="graph-144_class-dependencyEnd-margin" class="marker dependency class" refX="16" refY="7" markerWidth="20" markerHeight="28" orient="auto" markerUnits="userSpaceOnUse"><path d="M 18,7 L9,13 L14,7 L9,1 Z" style="stroke-width: 0;"></path></marker></defs><defs><marker id="graph-144_class-lollipopStart" class="marker lollipop class" refX="13" refY="7" markerWidth="190" markerHeight="240" orient="auto"><circle fill="transparent" cx="7" cy="7" r="6"></circle></marker></defs><defs><marker id="graph-144_class-lollipopEnd" class="marker lollipop class" refX="1" refY="7" markerWidth="190" markerHeight="240" orient="auto"><circle fill="transparent" cx="7" cy="7" r="6"></circle></marker></defs><defs><marker id="graph-144_class-lollipopStart-margin" class="marker lollipop class" refX="13" refY="7" markerWidth="190" markerHeight="240" orient="auto" markerUnits="userSpaceOnUse"><circle fill="transparent" cx="7" cy="7" r="6" stroke-width="2"></circle></marker></defs><defs><marker id="graph-144_class-lollipopEnd-margin" class="marker lollipop class" refX="1" refY="7" markerWidth="190" markerHeight="240" orient="auto" markerUnits="userSpaceOnUse"><circle fill="transparent" cx="7" cy="7" r="6" stroke-width="2"></circle></marker></defs><g class="root"><g class="clusters"></g><g class="edgePaths"><path d="M354.225,663.43L322.906,675.025C291.586,686.62,228.948,709.81,197.628,727.572C166.309,745.333,166.309,757.667,166.309,763.833L166.309,770" id="graph-144-id_PaymentProcessor_StripeProcessor_1" class="edge-thickness-normal edge-pattern-solid relation" style=";;;" data-edge="true" data-et="edge" data-id="id_PaymentProcessor_StripeProcessor_1" data-points="W3sieCI6MzcwLjQwMjM0Mzc1LCJ5Ijo2NTcuNDQwOTA5MzgwOTE1fSx7IngiOjE2Ni4zMDg1OTM3NSwieSI6NzMzfSx7IngiOjE2Ni4zMDg1OTM3NSwieSI6NzcwfV0=" data-look="classic" marker-start="url(#graph-144_class-extensionStart)"></path><path d="M533.66,713.25L533.66,716.542C533.66,719.833,533.66,726.417,533.66,735.875C533.66,745.333,533.66,757.667,533.66,763.833L533.66,770" id="graph-144-id_PaymentProcessor_PayPalProcessor_2" class="edge-thickness-normal edge-pattern-solid relation" style=";;;" data-edge="true" data-et="edge" data-id="id_PaymentProcessor_PayPalProcessor_2" data-points="W3sieCI6NTMzLjY2MDE1NjI1LCJ5Ijo2OTZ9LHsieCI6NTMzLjY2MDE1NjI1LCJ5Ijo3MzN9LHsieCI6NTMzLjY2MDE1NjI1LCJ5Ijo3NzB9XQ==" data-look="classic" marker-start="url(#graph-144_class-extensionStart)"></path><path d="M713.162,661.145L746.675,673.121C780.187,685.097,847.213,709.048,880.726,727.191C914.238,745.333,914.238,757.667,914.238,763.833L914.238,770" id="graph-144-id_PaymentProcessor_BankTransferProcessor_3" class="edge-thickness-normal edge-pattern-solid relation" style=";;;" data-edge="true" data-et="edge" data-id="id_PaymentProcessor_BankTransferProcessor_3" data-points="W3sieCI6Njk2LjkxNzk2ODc1LCJ5Ijo2NTUuMzQwMzUzOTAyMzY5fSx7IngiOjkxNC4yMzgyODEyNSwieSI6NzMzfSx7IngiOjkxNC4yMzgyODEyNSwieSI6NzcwfV0=" data-look="classic" marker-start="url(#graph-144_class-extensionStart)"></path><path d="M533.66,424L533.66,430.167C533.66,436.333,533.66,448.667,533.66,460C533.66,471.333,533.66,481.667,533.66,486.833L533.66,492" id="graph-144-id_PaymentProcessorFactory_PaymentProcessor_4" class="edge-thickness-normal edge-pattern-solid relation" style=";;;" data-edge="true" data-et="edge" data-id="id_PaymentProcessorFactory_PaymentProcessor_4" data-points="W3sieCI6NTMzLjY2MDE1NjI1LCJ5Ijo0MjR9LHsieCI6NTMzLjY2MDE1NjI1LCJ5Ijo0NjF9LHsieCI6NTMzLjY2MDE1NjI1LCJ5Ijo0OTh9XQ==" data-look="classic" marker-end="url(#graph-144_class-dependencyEnd)"></path><path d="M533.66,176L533.66,182.167C533.66,188.333,533.66,200.667,533.66,212C533.66,223.333,533.66,233.667,533.66,238.833L533.66,244" id="graph-144-id_PaymentController_PaymentProcessorFactory_5" class="edge-thickness-normal edge-pattern-solid relation" style=";;;" data-edge="true" data-et="edge" data-id="id_PaymentController_PaymentProcessorFactory_5" data-points="W3sieCI6NTMzLjY2MDE1NjI1LCJ5IjoxNzZ9LHsieCI6NTMzLjY2MDE1NjI1LCJ5IjoyMTN9LHsieCI6NTMzLjY2MDE1NjI1LCJ5IjoyNTB9XQ==" data-look="classic" marker-end="url(#graph-144_class-dependencyEnd)"></path></g><g class="edgeLabels"><g class="edgeLabel" transform="translate(166.30859375, 733)"><g class="label" data-id="id_PaymentProcessor_StripeProcessor_1" transform="translate(-41.890625, -12)"><foreignObject width="83.78125" height="24"><div xmlns="http://www.w3.org/1999/xhtml" class="labelBkg" style="display: table-cell; white-space: nowrap; line-height: 1.5; max-width: 200px; text-align: center;"><span class="edgeLabel"><p>implements</p></span></div></foreignObject></g></g><g class="edgeLabel" transform="translate(533.66015625, 733)"><g class="label" data-id="id_PaymentProcessor_PayPalProcessor_2" transform="translate(-41.890625, -12)"><foreignObject width="83.78125" height="24"><div xmlns="http://www.w3.org/1999/xhtml" class="labelBkg" style="display: table-cell; white-space: nowrap; line-height: 1.5; max-width: 200px; text-align: center;"><span class="edgeLabel"><p>implements</p></span></div></foreignObject></g></g><g class="edgeLabel" transform="translate(914.23828125, 733)"><g class="label" data-id="id_PaymentProcessor_BankTransferProcessor_3" transform="translate(-41.890625, -12)"><foreignObject width="83.78125" height="24"><div xmlns="http://www.w3.org/1999/xhtml" class="labelBkg" style="display: table-cell; white-space: nowrap; line-height: 1.5; max-width: 200px; text-align: center;"><span class="edgeLabel"><p>implements</p></span></div></foreignObject></g></g><g class="edgeLabel" transform="translate(533.66015625, 461)"><g class="label" data-id="id_PaymentProcessorFactory_PaymentProcessor_4" transform="translate(-26.4140625, -12)"><foreignObject width="52.828125" height="24"><div xmlns="http://www.w3.org/1999/xhtml" class="labelBkg" style="display: table-cell; white-space: nowrap; line-height: 1.5; max-width: 200px; text-align: center;"><span class="edgeLabel"><p>creates</p></span></div></foreignObject></g></g><g class="edgeLabel" transform="translate(533.66015625, 213)"><g class="label" data-id="id_PaymentController_PaymentProcessorFactory_5" transform="translate(-15.2109375, -12)"><foreignObject width="30.421875" height="24"><div xmlns="http://www.w3.org/1999/xhtml" class="labelBkg" style="display: table-cell; white-space: nowrap; line-height: 1.5; max-width: 200px; text-align: center;"><span class="edgeLabel"><p>uses</p></span></div></foreignObject></g></g></g><g class="nodes"><g class="node default" id="graph-144-classId-PaymentProcessor-284" data-look="classic" transform="translate(533.66015625, 597)"><g class="basic label-container outer-path"><path d="M-163.2578125 -99 L163.2578125 -99 L163.2578125 99 L-163.2578125 99" stroke="none" stroke-width="0" fill="#ECECFF" style=""></path><path d="M-163.2578125 -99 C-77.35162931530014 -99, 8.554553869399712 -99, 163.2578125 -99 M-163.2578125 -99 C-57.981151439928 -99, 47.295509620144 -99, 163.2578125 -99 M163.2578125 -99 C163.2578125 -54.33159133817615, 163.2578125 -9.663182676352307, 163.2578125 99 M163.2578125 -99 C163.2578125 -55.77732236861396, 163.2578125 -12.554644737227918, 163.2578125 99 M163.2578125 99 C49.62206242753989 99, -64.01368764492022 99, -163.2578125 99 M163.2578125 99 C62.992656982560135 99, -37.27249853487973 99, -163.2578125 99 M-163.2578125 99 C-163.2578125 49.7717948154092, -163.2578125 0.5435896308184027, -163.2578125 -99 M-163.2578125 99 C-163.2578125 38.415043845473164, -163.2578125 -22.16991230905367, -163.2578125 -99" stroke="#9370DB" stroke-width="1.3" fill="none" stroke-dasharray="0 0" style=""></path></g><g class="annotation-group text" transform="translate(-41.171875, -75)"><g class="label" style="" transform="translate(0,-12)"><foreignObject width="82.34375" height="24"><div xmlns="http://www.w3.org/1999/xhtml" style="display: table-cell; white-space: nowrap; line-height: 1.5; max-width: 142px; text-align: center;"><span class="nodeLabel markdown-node-label" style=""><p>«interface»</p></span></div></foreignObject></g></g><g class="label-group text" transform="translate(-68.390625, -51)"><g class="label" style="font-weight: bolder" transform="translate(0,-12)"><foreignObject width="136.78125" height="24"><div xmlns="http://www.w3.org/1999/xhtml" style="display: table-cell; white-space: nowrap; line-height: 1.5; max-width: 196px; text-align: center;"><span class="nodeLabel markdown-node-label" style=""><p>PaymentProcessor</p></span></div></foreignObject></g></g><g class="members-group text" transform="translate(-151.2578125, -3)"></g><g class="methods-group text" transform="translate(-151.2578125, 27)"><g class="label" style="" transform="translate(0,-12)"><foreignObject width="172.40625" height="24"><div xmlns="http://www.w3.org/1999/xhtml" style="display: table-cell; white-space: nowrap; line-height: 1.5; max-width: 245px; text-align: center;"><span class="nodeLabel markdown-node-label" style=""><p>+charge(Order) : : array</p></span></div></foreignObject></g><g class="label" style="" transform="translate(0,12)"><foreignObject width="234.125" height="24"><div xmlns="http://www.w3.org/1999/xhtml" style="display: table-cell; white-space: nowrap; line-height: 1.5; max-width: 312px; text-align: center;"><span class="nodeLabel markdown-node-label" style=""><p>+refund(Order, amount) : : array</p></span></div></foreignObject></g><g class="label" style="" transform="translate(0,36)"><foreignObject width="164.453125" height="24"><div xmlns="http://www.w3.org/1999/xhtml" style="display: table-cell; white-space: nowrap; line-height: 1.5; max-width: 235px; text-align: center;"><span class="nodeLabel markdown-node-label" style=""><p>+cancel(Order) : : bool</p></span></div></foreignObject></g></g><g class="divider" style=""><path d="M-163.2578125 -27 C-45.027409200664835 -26.9996379027702, 73.20299409867033 -26.999275805540396, 163.2578125 -26.999 M-163.2578125 -27 C-90.68270262623138 -26.999777728524098, -18.10759275246275 -26.999555457048196, 163.2578125 -26.999" stroke="#9370DB" stroke-width="1.3" fill="none" stroke-dasharray="0 0" style=""></path></g><g class="divider" style=""><path d="M-163.2578125 -3 C-57.23858556515539 -2.9996753012143453, 48.78064136968922 -2.9993506024286902, 163.2578125 -2.999 M-163.2578125 -3 C-84.80808662230002 -2.999759736686789, -6.3583607446000485 -2.999519473373578, 163.2578125 -2.999" stroke="#9370DB" stroke-width="1.3" fill="none" stroke-dasharray="0 0" style=""></path></g></g><g class="node default" id="graph-144-classId-StripeProcessor-285" data-look="classic" transform="translate(166.30859375, 857)"><g class="basic label-container outer-path"><path d="M-158.30859375 -87 L158.30859375 -87 L158.30859375 87 L-158.30859375 87" stroke="none" stroke-width="0" fill="#ECECFF" style=""></path><path d="M-158.30859375 -87 C-59.00200815989153 -87, 40.30457743021694 -87, 158.30859375 -87 M-158.30859375 -87 C-41.042099054413555 -87, 76.22439564117289 -87, 158.30859375 -87 M158.30859375 -87 C158.30859375 -51.49206306070395, 158.30859375 -15.984126121407897, 158.30859375 87 M158.30859375 -87 C158.30859375 -30.204291197981703, 158.30859375 26.591417604036593, 158.30859375 87 M158.30859375 87 C36.80840477533749 87, -84.69178419932501 87, -158.30859375 87 M158.30859375 87 C62.20567262212013 87, -33.897248505759734 87, -158.30859375 87 M-158.30859375 87 C-158.30859375 35.10989074296333, -158.30859375 -16.78021851407334, -158.30859375 -87 M-158.30859375 87 C-158.30859375 46.921810347694716, -158.30859375 6.843620695389433, -158.30859375 -87" stroke="#9370DB" stroke-width="1.3" fill="none" stroke-dasharray="0 0" style=""></path></g><g class="annotation-group text" transform="translate(0, -63)"></g><g class="label-group text" transform="translate(-58.4921875, -63)"><g class="label" style="font-weight: bolder" transform="translate(0,-12)"><foreignObject width="116.984375" height="24"><div xmlns="http://www.w3.org/1999/xhtml" style="display: table-cell; white-space: nowrap; line-height: 1.5; max-width: 178px; text-align: center;"><span class="nodeLabel markdown-node-label" style=""><p>StripeProcessor</p></span></div></foreignObject></g></g><g class="members-group text" transform="translate(-146.30859375, -15)"></g><g class="methods-group text" transform="translate(-146.30859375, 15)"><g class="label" style="" transform="translate(0,-12)"><foreignObject width="172.40625" height="24"><div xmlns="http://www.w3.org/1999/xhtml" style="display: table-cell; white-space: nowrap; line-height: 1.5; max-width: 245px; text-align: center;"><span class="nodeLabel markdown-node-label" style=""><p>+charge(Order) : : array</p></span></div></foreignObject></g><g class="label" style="" transform="translate(0,12)"><foreignObject width="234.125" height="24"><div xmlns="http://www.w3.org/1999/xhtml" style="display: table-cell; white-space: nowrap; line-height: 1.5; max-width: 312px; text-align: center;"><span class="nodeLabel markdown-node-label" style=""><p>+refund(Order, amount) : : array</p></span></div></foreignObject></g><g class="label" style="" transform="translate(0,36)"><foreignObject width="164.453125" height="24"><div xmlns="http://www.w3.org/1999/xhtml" style="display: table-cell; white-space: nowrap; line-height: 1.5; max-width: 235px; text-align: center;"><span class="nodeLabel markdown-node-label" style=""><p>+cancel(Order) : : bool</p></span></div></foreignObject></g></g><g class="divider" style=""><path d="M-158.30859375 -39 C-86.45528928611506 -38.999773059368536, -14.601984822230122 -38.99954611873707, 158.30859375 -38.999 M-158.30859375 -39 C-48.87715561542004 -38.99965437303326, 60.554282519159926 -38.99930874606651, 158.30859375 -38.999" stroke="#9370DB" stroke-width="1.3" fill="none" stroke-dasharray="0 0" style=""></path></g><g class="divider" style=""><path d="M-158.30859375 -15 C-44.84442244824686 -14.999641636096266, 68.61974885350628 -14.999283272192532, 158.30859375 -14.999 M-158.30859375 -15 C-51.10203534922947 -14.999661400067232, 56.104523051541065 -14.999322800134465, 158.30859375 -14.999" stroke="#9370DB" stroke-width="1.3" fill="none" stroke-dasharray="0 0" style=""></path></g></g><g class="node default" id="graph-144-classId-PayPalProcessor-286" data-look="classic" transform="translate(533.66015625, 857)"><g class="basic label-container outer-path"><path d="M-159.04296875 -87 L159.04296875 -87 L159.04296875 87 L-159.04296875 87" stroke="none" stroke-width="0" fill="#ECECFF" style=""></path><path d="M-159.04296875 -87 C-41.06838144496699 -87, 76.90620586006602 -87, 159.04296875 -87 M-159.04296875 -87 C-65.34087505006444 -87, 28.36121864987112 -87, 159.04296875 -87 M159.04296875 -87 C159.04296875 -35.73291387967884, 159.04296875 15.53417224064232, 159.04296875 87 M159.04296875 -87 C159.04296875 -33.33356273881742, 159.04296875 20.33287452236516, 159.04296875 87 M159.04296875 87 C51.39225681817895 87, -56.2584551136421 87, -159.04296875 87 M159.04296875 87 C50.43894131501044 87, -58.16508611997912 87, -159.04296875 87 M-159.04296875 87 C-159.04296875 44.38155638801191, -159.04296875 1.7631127760238172, -159.04296875 -87 M-159.04296875 87 C-159.04296875 32.974966724209686, -159.04296875 -21.050066551580628, -159.04296875 -87" stroke="#9370DB" stroke-width="1.3" fill="none" stroke-dasharray="0 0" style=""></path></g><g class="annotation-group text" transform="translate(0, -63)"></g><g class="label-group text" transform="translate(-59.9609375, -63)"><g class="label" style="font-weight: bolder" transform="translate(0,-12)"><foreignObject width="119.921875" height="24"><div xmlns="http://www.w3.org/1999/xhtml" style="display: table-cell; white-space: nowrap; line-height: 1.5; max-width: 180px; text-align: center;"><span class="nodeLabel markdown-node-label" style=""><p>PayPalProcessor</p></span></div></foreignObject></g></g><g class="members-group text" transform="translate(-147.04296875, -15)"></g><g class="methods-group text" transform="translate(-147.04296875, 15)"><g class="label" style="" transform="translate(0,-12)"><foreignObject width="172.40625" height="24"><div xmlns="http://www.w3.org/1999/xhtml" style="display: table-cell; white-space: nowrap; line-height: 1.5; max-width: 245px; text-align: center;"><span class="nodeLabel markdown-node-label" style=""><p>+charge(Order) : : array</p></span></div></foreignObject></g><g class="label" style="" transform="translate(0,12)"><foreignObject width="234.125" height="24"><div xmlns="http://www.w3.org/1999/xhtml" style="display: table-cell; white-space: nowrap; line-height: 1.5; max-width: 312px; text-align: center;"><span class="nodeLabel markdown-node-label" style=""><p>+refund(Order, amount) : : array</p></span></div></foreignObject></g><g class="label" style="" transform="translate(0,36)"><foreignObject width="164.453125" height="24"><div xmlns="http://www.w3.org/1999/xhtml" style="display: table-cell; white-space: nowrap; line-height: 1.5; max-width: 235px; text-align: center;"><span class="nodeLabel markdown-node-label" style=""><p>+cancel(Order) : : bool</p></span></div></foreignObject></g></g><g class="divider" style=""><path d="M-159.04296875 -39 C-51.5010052388744 -38.99966190909175, 56.0409582722512 -38.9993238181835, 159.04296875 -38.999 M-159.04296875 -39 C-76.21909845555858 -38.99973961794431, 6.60477183888284 -38.99947923588861, 159.04296875 -38.999" stroke="#9370DB" stroke-width="1.3" fill="none" stroke-dasharray="0 0" style=""></path></g><g class="divider" style=""><path d="M-159.04296875 -15 C-88.53011841564086 -14.999778321384188, -18.017268081281713 -14.999556642768376, 159.04296875 -14.999 M-159.04296875 -15 C-72.50954676532115 -14.999727955839026, 14.023875219357706 -14.999455911678053, 159.04296875 -14.999" stroke="#9370DB" stroke-width="1.3" fill="none" stroke-dasharray="0 0" style=""></path></g></g><g class="node default" id="graph-144-classId-BankTransferProcessor-287" data-look="classic" transform="translate(914.23828125, 857)"><g class="basic label-container outer-path"><path d="M-171.53515625 -87 L171.53515625 -87 L171.53515625 87 L-171.53515625 87" stroke="none" stroke-width="0" fill="#ECECFF" style=""></path><path d="M-171.53515625 -87 C-51.846266299604736 -87, 67.84262365079053 -87, 171.53515625 -87 M-171.53515625 -87 C-89.41879739828369 -87, -7.302438546567373 -87, 171.53515625 -87 M171.53515625 -87 C171.53515625 -43.7559416648045, 171.53515625 -0.511883329609006, 171.53515625 87 M171.53515625 -87 C171.53515625 -50.75604723376402, 171.53515625 -14.512094467528044, 171.53515625 87 M171.53515625 87 C48.14981300814087 87, -75.23553023371826 87, -171.53515625 87 M171.53515625 87 C101.75383757619859 87, 31.972518902397184 87, -171.53515625 87 M-171.53515625 87 C-171.53515625 32.16181974643005, -171.53515625 -22.676360507139904, -171.53515625 -87 M-171.53515625 87 C-171.53515625 29.861340699236003, -171.53515625 -27.277318601527995, -171.53515625 -87" stroke="#9370DB" stroke-width="1.3" fill="none" stroke-dasharray="0 0" style=""></path></g><g class="annotation-group text" transform="translate(0, -63)"></g><g class="label-group text" transform="translate(-84.9453125, -63)"><g class="label" style="font-weight: bolder" transform="translate(0,-12)"><foreignObject width="169.890625" height="24"><div xmlns="http://www.w3.org/1999/xhtml" style="display: table-cell; white-space: nowrap; line-height: 1.5; max-width: 233px; text-align: center;"><span class="nodeLabel markdown-node-label" style=""><p>BankTransferProcessor</p></span></div></foreignObject></g></g><g class="members-group text" transform="translate(-159.53515625, -15)"></g><g class="methods-group text" transform="translate(-159.53515625, 15)"><g class="label" style="" transform="translate(0,-12)"><foreignObject width="172.40625" height="24"><div xmlns="http://www.w3.org/1999/xhtml" style="display: table-cell; white-space: nowrap; line-height: 1.5; max-width: 245px; text-align: center;"><span class="nodeLabel markdown-node-label" style=""><p>+charge(Order) : : array</p></span></div></foreignObject></g><g class="label" style="" transform="translate(0,12)"><foreignObject width="234.125" height="24"><div xmlns="http://www.w3.org/1999/xhtml" style="display: table-cell; white-space: nowrap; line-height: 1.5; max-width: 312px; text-align: center;"><span class="nodeLabel markdown-node-label" style=""><p>+refund(Order, amount) : : array</p></span></div></foreignObject></g><g class="label" style="" transform="translate(0,36)"><foreignObject width="164.453125" height="24"><div xmlns="http://www.w3.org/1999/xhtml" style="display: table-cell; white-space: nowrap; line-height: 1.5; max-width: 235px; text-align: center;"><span class="nodeLabel markdown-node-label" style=""><p>+cancel(Order) : : bool</p></span></div></foreignObject></g></g><g class="divider" style=""><path d="M-171.53515625 -39 C-81.23248058670092 -38.999736780851116, 9.070195076598168 -38.99947356170224, 171.53515625 -38.999 M-171.53515625 -39 C-90.22028258568245 -38.99976297898506, -8.90540892136491 -38.99952595797012, 171.53515625 -38.999" stroke="#9370DB" stroke-width="1.3" fill="none" stroke-dasharray="0 0" style=""></path></g><g class="divider" style=""><path d="M-171.53515625 -15 C-41.003021353471496 -14.999619517836022, 89.52911354305701 -14.999239035672044, 171.53515625 -14.999 M-171.53515625 -15 C-66.5925317924476 -14.999694107532381, 38.350092665104796 -14.999388215064762, 171.53515625 -14.999" stroke="#9370DB" stroke-width="1.3" fill="none" stroke-dasharray="0 0" style=""></path></g></g><g class="node default" id="graph-144-classId-PaymentProcessorFactory-288" data-look="classic" transform="translate(533.66015625, 337)"><g class="basic label-container outer-path"><path d="M-209.5703125 -87 L209.5703125 -87 L209.5703125 87 L-209.5703125 87" stroke="none" stroke-width="0" fill="#ECECFF" style=""></path><path d="M-209.5703125 -87 C-111.03662793649276 -87, -12.502943372985527 -87, 209.5703125 -87 M-209.5703125 -87 C-82.68470894909147 -87, 44.200894601817055 -87, 209.5703125 -87 M209.5703125 -87 C209.5703125 -36.55197247263073, 209.5703125 13.89605505473854, 209.5703125 87 M209.5703125 -87 C209.5703125 -43.9103812033631, 209.5703125 -0.8207624067262032, 209.5703125 87 M209.5703125 87 C105.03442451050263 87, 0.49853652100526347 87, -209.5703125 87 M209.5703125 87 C56.551366565467276 87, -96.46757936906545 87, -209.5703125 87 M-209.5703125 87 C-209.5703125 35.37368048740027, -209.5703125 -16.252639025199457, -209.5703125 -87 M-209.5703125 87 C-209.5703125 48.166942849562005, -209.5703125 9.33388569912401, -209.5703125 -87" stroke="#9370DB" stroke-width="1.3" fill="none" stroke-dasharray="0 0" style=""></path></g><g class="annotation-group text" transform="translate(0, -63)"></g><g class="label-group text" transform="translate(-96.421875, -63)"><g class="label" style="font-weight: bolder" transform="translate(0,-12)"><foreignObject width="192.84375" height="24"><div xmlns="http://www.w3.org/1999/xhtml" style="display: table-cell; white-space: nowrap; line-height: 1.5; max-width: 257px; text-align: center;"><span class="nodeLabel markdown-node-label" style=""><p>PaymentProcessorFactory</p></span></div></foreignObject></g></g><g class="members-group text" transform="translate(-197.5703125, -15)"></g><g class="methods-group text" transform="translate(-197.5703125, 15)"><g class="label" style="" transform="translate(0,-12)"><foreignObject width="298.71875" height="24"><div xmlns="http://www.w3.org/1999/xhtml" style="display: table-cell; white-space: nowrap; line-height: 1.5; max-width: 394px; text-align: center;"><span class="nodeLabel markdown-node-label" style=""><p>+create(string type) : : PaymentProcessor</p></span></div></foreignObject></g><g class="label" style="" transform="translate(0,12)"><foreignObject width="264.109375" height="24"><div xmlns="http://www.w3.org/1999/xhtml" style="display: table-cell; white-space: nowrap; line-height: 1.5; max-width: 355px; text-align: center;"><span class="nodeLabel markdown-node-label" style=""><p>+createStripe() : : PaymentProcessor</p></span></div></foreignObject></g><g class="label" style="" transform="translate(0,36)"><foreignObject width="267.40625" height="24"><div xmlns="http://www.w3.org/1999/xhtml" style="display: table-cell; white-space: nowrap; line-height: 1.5; max-width: 357px; text-align: center;"><span class="nodeLabel markdown-node-label" style=""><p>+createPayPal() : : PaymentProcessor</p></span></div></foreignObject></g></g><g class="divider" style=""><path d="M-209.5703125 -39 C-73.42077838938545 -38.99967516979746, 62.728755721229106 -38.999350339594926, 209.5703125 -38.999 M-209.5703125 -39 C-81.83001957447884 -38.99969523285192, 45.91027335104232 -38.99939046570384, 209.5703125 -38.999" stroke="#9370DB" stroke-width="1.3" fill="none" stroke-dasharray="0 0" style=""></path></g><g class="divider" style=""><path d="M-209.5703125 -15 C-92.99993517249099 -14.99972188241756, 23.570442155018014 -14.999443764835119, 209.5703125 -14.999 M-209.5703125 -15 C-87.9060497853216 -14.99970972925205, 33.7582129293568 -14.999419458504102, 209.5703125 -14.999" stroke="#9370DB" stroke-width="1.3" fill="none" stroke-dasharray="0 0" style=""></path></g></g><g class="node default" id="graph-144-classId-PaymentController-289" data-look="classic" transform="translate(533.66015625, 92)"><g class="basic label-container outer-path"><path d="M-222.8203125 -84 L222.8203125 -84 L222.8203125 84 L-222.8203125 84" stroke="none" stroke-width="0" fill="#ECECFF" style=""></path><path d="M-222.8203125 -84 C-112.29882023438331 -84, -1.7773279687666275 -84, 222.8203125 -84 M-222.8203125 -84 C-128.64426342731716 -84, -34.46821435463431 -84, 222.8203125 -84 M222.8203125 -84 C222.8203125 -27.429754473573077, 222.8203125 29.140491052853847, 222.8203125 84 M222.8203125 -84 C222.8203125 -38.378088058959854, 222.8203125 7.243823882080292, 222.8203125 84 M222.8203125 84 C103.07203866171001 84, -16.67623517657998 84, -222.8203125 84 M222.8203125 84 C111.39601225305415 84, -0.028287993891694896 84, -222.8203125 84 M-222.8203125 84 C-222.8203125 26.940884998585375, -222.8203125 -30.11823000282925, -222.8203125 -84 M-222.8203125 84 C-222.8203125 43.838372470710354, -222.8203125 3.676744941420708, -222.8203125 -84" stroke="#9370DB" stroke-width="1.3" fill="none" stroke-dasharray="0 0" style=""></path></g><g class="annotation-group text" transform="translate(0, -60)"></g><g class="label-group text" transform="translate(-70.21875, -60)"><g class="label" style="font-weight: bolder" transform="translate(0,-12)"><foreignObject width="140.4375" height="24"><div xmlns="http://www.w3.org/1999/xhtml" style="display: table-cell; white-space: nowrap; line-height: 1.5; max-width: 199px; text-align: center;"><span class="nodeLabel markdown-node-label" style=""><p>PaymentController</p></span></div></foreignObject></g></g><g class="members-group text" transform="translate(-210.8203125, -12)"><g class="label" style="" transform="translate(0,-12)"><foreignObject width="253.078125" height="24"><div xmlns="http://www.w3.org/1999/xhtml" style="display: table-cell; white-space: nowrap; line-height: 1.5; max-width: 346px; text-align: center;"><span class="nodeLabel markdown-node-label" style=""><p>-PaymentProcessorFactory $factory</p></span></div></foreignObject></g></g><g class="methods-group text" transform="translate(-210.8203125, 36)"><g class="label" style="" transform="translate(0,-12)"><foreignObject width="351.421875" height="24"><div xmlns="http://www.w3.org/1999/xhtml" style="display: table-cell; white-space: nowrap; line-height: 1.5; max-width: 455px; text-align: center;"><span class="nodeLabel markdown-node-label" style=""><p>+__construct(PaymentProcessorFactory $factory)</p></span></div></foreignObject></g><g class="label" style="" transform="translate(0,12)"><foreignObject width="181.609375" height="24"><div xmlns="http://www.w3.org/1999/xhtml" style="display: table-cell; white-space: nowrap; line-height: 1.5; max-width: 261px; text-align: center;"><span class="nodeLabel markdown-node-label" style=""><p>+process(Request, Order)</p></span></div></foreignObject></g></g><g class="divider" style=""><path d="M-222.8203125 -36 C-107.18001012645179 -35.999740507718805, 8.460292247096419 -35.99948101543762, 222.8203125 -35.999 M-222.8203125 -36 C-71.05063123575323 -35.99965943481642, 80.71905002849354 -35.99931886963284, 222.8203125 -35.999" stroke="#9370DB" stroke-width="1.3" fill="none" stroke-dasharray="0 0" style=""></path></g><g class="divider" style=""><path d="M-222.8203125 12 C-70.96136681125009 12.000340765489431, 80.89757887749983 12.000681530978863, 222.8203125 12.001 M-222.8203125 12 C-82.0412690199858 12.000315902625529, 58.73777446002839 12.000631805251059, 222.8203125 12.001" stroke="#9370DB" stroke-width="1.3" fill="none" stroke-dasharray="0 0" style=""></path></g></g></g></g></g></g></svg>