<?xml version="1.0" encoding="UTF-8"?>
<?xml-stylesheet href="https://cdnjs.cloudflare.com/ajax/libs/font-awesome/7.2.0/css/all.min.css" type="text/css"?>
<svg id="graph-305" width="100%" xmlns="http://www.w3.org/2000/svg" class="classDiagram" style="overflow: hidden; max-width: 100%; touch-action: none; user-select: none; -webkit-user-drag: none; -webkit-tap-highlight-color: rgba(0, 0, 0, 0); background-color: rgb(255, 255, 255);" role="graphics-document document" aria-roledescription="class" height="100%" xmlns:xlink="http://www.w3.org/1999/xlink" xmlns:ev="http://www.w3.org/2001/xml-events"><defs><filter id="graph-305-drop-shadow" height="130%" width="130%"><feDropShadow dx="4" dy="4" stdDeviation="0" flood-opacity="0.06" flood-color="#000000"></feDropShadow></filter></defs><defs><filter id="graph-305-drop-shadow-small" height="150%" width="150%"><feDropShadow dx="2" dy="2" stdDeviation="0" flood-opacity="0.06" flood-color="#000000"></feDropShadow></filter></defs><g id="viewport-20260801170429876" class="svg-pan-zoom_viewport" transform="matrix(0.5884009716271771,0,0,0.5884009716271771,253.4635240447808,132.34979897030533)" style="transform: matrix(0.588401, 0, 0, 0.588401, 253.464, 132.35);"><style>#graph-305{font-family:"trebuchet ms",verdana,arial,sans-serif;font-size:16px;fill:#333;}@keyframes edge-animation-frame{from{stroke-dashoffset:0;}}@keyframes dash{to{stroke-dashoffset:0;}}#graph-305 .edge-animation-slow{stroke-dasharray:9,5!important;stroke-dashoffset:900;animation:dash 50s linear infinite;stroke-linecap:round;}#graph-305 .edge-animation-fast{stroke-dasharray:9,5!important;stroke-dashoffset:900;animation:dash 20s linear infinite;stroke-linecap:round;}#graph-305 .error-icon{fill:#552222;}#graph-305 .error-text{fill:#552222;stroke:#552222;}#graph-305 .edge-thickness-normal{stroke-width:1px;}#graph-305 .edge-thickness-thick{stroke-width:3.5px;}#graph-305 .edge-pattern-solid{stroke-dasharray:0;}#graph-305 .edge-thickness-invisible{stroke-width:0;fill:none;}#graph-305 .edge-pattern-dashed{stroke-dasharray:3;}#graph-305 .edge-pattern-dotted{stroke-dasharray:2;}#graph-305 .marker{fill:#333333;stroke:#333333;}#graph-305 .marker.cross{stroke:#333333;}#graph-305 svg{font-family:"trebuchet ms",verdana,arial,sans-serif;font-size:16px;}#graph-305 p{margin:0;}#graph-305 g.classGroup text{fill:#9370DB;stroke:none;font-family:"trebuchet ms",verdana,arial,sans-serif;font-size:10px;}#graph-305 g.classGroup text .title{font-weight:bolder;}#graph-305 .cluster-label text{fill:#333;}#graph-305 .cluster-label span{color:#333;}#graph-305 .cluster-label span p{background-color:transparent;}#graph-305 .cluster rect{fill:#ffffde;stroke:#aaaa33;stroke-width:1px;}#graph-305 .cluster text{fill:#333;}#graph-305 .cluster span{color:#333;}#graph-305 .nodeLabel,#graph-305 .edgeLabel{color:#131300;}#graph-305 .noteLabel .nodeLabel,#graph-305 .noteLabel .edgeLabel{color:black;}#graph-305 .edgeLabel .label rect{fill:#ECECFF;}#graph-305 .label text{fill:#131300;}#graph-305 .labelBkg{background:#ECECFF;}#graph-305 .edgeLabel .label span{background:#ECECFF;}#graph-305 .classTitle{font-weight:bolder;}#graph-305 .node rect,#graph-305 .node circle,#graph-305 .node ellipse,#graph-305 .node polygon,#graph-305 .node path{fill:#ECECFF;stroke:#9370DB;stroke-width:1;}#graph-305 .divider{stroke:#9370DB;stroke-width:1;}#graph-305 g.clickable{cursor:pointer;}#graph-305 g.classGroup rect{fill:#ECECFF;stroke:#9370DB;}#graph-305 g.classGroup line{stroke:#9370DB;stroke-width:1;}#graph-305 .classLabel .box{stroke:none;stroke-width:0;fill:#ECECFF;opacity:0.5;}#graph-305 .classLabel .label{fill:#9370DB;font-size:10px;}#graph-305 .relation{stroke:#333333;stroke-width:1;fill:none;}#graph-305 .dashed-line{stroke-dasharray:3;}#graph-305 .dotted-line{stroke-dasharray:1 2;}#graph-305 [id$="-compositionStart"],#graph-305 .composition{fill:#333333!important;stroke:#333333!important;stroke-width:1;}#graph-305 [id$="-compositionEnd"],#graph-305 .composition{fill:#333333!important;stroke:#333333!important;stroke-width:1;}#graph-305 [id$="-dependencyStart"],#graph-305 .dependency{fill:#333333!important;stroke:#333333!important;stroke-width:1;}#graph-305 [id$="-dependencyEnd"],#graph-305 .dependency{fill:#333333!important;stroke:#333333!important;stroke-width:1;}#graph-305 [id$="-extensionStart"],#graph-305 .extension{fill:transparent!important;stroke:#333333!important;stroke-width:1;}#graph-305 [id$="-extensionEnd"],#graph-305 .extension{fill:transparent!important;stroke:#333333!important;stroke-width:1;}#graph-305 [id$="-aggregationStart"],#graph-305 .aggregation{fill:transparent!important;stroke:#333333!important;stroke-width:1;}#graph-305 [id$="-aggregationEnd"],#graph-305 .aggregation{fill:transparent!important;stroke:#333333!important;stroke-width:1;}#graph-305 [id$="-lollipopStart"],#graph-305 .lollipop{fill:#ECECFF!important;stroke:#333333!important;stroke-width:1;}#graph-305 [id$="-lollipopEnd"],#graph-305 .lollipop{fill:#ECECFF!important;stroke:#333333!important;stroke-width:1;}#graph-305 .edgeTerminals{font-size:11px;line-height:initial;}#graph-305 .classTitleText{text-anchor:middle;font-size:18px;fill:#333;}#graph-305 .edgeLabel[data-look="neo"]{background-color:rgba(232,232,232, 0.8);text-align:center;}#graph-305 .edgeLabel[data-look="neo"] p{background-color:rgba(232,232,232, 0.8);}#graph-305 .edgeLabel[data-look="neo"] rect{opacity:0.5;background-color:rgba(232,232,232, 0.8);fill:rgba(232,232,232, 0.8);}#graph-305 .label-icon{display:inline-block;height:1em;overflow:visible;vertical-align:-0.125em;}#graph-305 .node .label-icon path{fill:currentColor;stroke:revert;stroke-width:revert;}#graph-305 .node .neo-node{stroke:#9370DB;}#graph-305 [data-look="neo"].node rect,#graph-305 [data-look="neo"].cluster rect,#graph-305 [data-look="neo"].node polygon{stroke:#9370DB;filter:drop-shadow(1px 2px 2px rgba(185, 185, 185, 1));}#graph-305 [data-look="neo"].swimlane.cluster rect{filter:none;}#graph-305 [data-look="neo"].node path{stroke:#9370DB;stroke-width:1px;}#graph-305 [data-look="neo"].node .outer-path{filter:drop-shadow(1px 2px 2px rgba(185, 185, 185, 1));}#graph-305 [data-look="neo"].node .neo-line path{stroke:#9370DB;filter:none;}#graph-305 [data-look="neo"].node circle{stroke:#9370DB;filter:drop-shadow(1px 2px 2px rgba(185, 185, 185, 1));}#graph-305 [data-look="neo"].node circle .state-start{fill:#000000;}#graph-305 [data-look="neo"].icon-shape .icon{fill:#9370DB;filter:drop-shadow(1px 2px 2px rgba(185, 185, 185, 1));}#graph-305 [data-look="neo"].icon-shape .icon-neo path{stroke:#9370DB;filter:drop-shadow(1px 2px 2px rgba(185, 185, 185, 1));}#graph-305 :root{--mermaid-font-family:"trebuchet ms",verdana,arial,sans-serif;}</style><g><defs><marker id="graph-305_class-aggregationStart" class="marker aggregation class" refX="18" refY="7" markerWidth="190" markerHeight="240" orient="auto"><path d="M 18,7 L9,13 L1,7 L9,1 Z"></path></marker></defs><defs><marker id="graph-305_class-aggregationEnd" class="marker aggregation class" refX="1" refY="7" markerWidth="20" markerHeight="28" orient="auto"><path d="M 18,7 L9,13 L1,7 L9,1 Z"></path></marker></defs><defs><marker id="graph-305_class-aggregationStart-margin" class="marker aggregation class" refX="15" refY="7" markerWidth="190" markerHeight="240" orient="auto" markerUnits="userSpaceOnUse"><path d="M 18,7 L9,13 L1,7 L9,1 Z" style="stroke-width: 2;"></path></marker></defs><defs><marker id="graph-305_class-aggregationEnd-margin" class="marker aggregation class" refX="1" refY="7" markerWidth="20" markerHeight="28" orient="auto" markerUnits="userSpaceOnUse"><path d="M 18,7 L9,13 L1,7 L9,1 Z" style="stroke-width: 2;"></path></marker></defs><defs><marker id="graph-305_class-extensionStart" class="marker extension class" refX="18" refY="7" markerWidth="20" markerHeight="28" orient="auto" markerUnits="userSpaceOnUse"><path d="M 1,7 L18,13 V 1 Z"></path></marker></defs><defs><marker id="graph-305_class-extensionEnd" class="marker extension class" refX="1" refY="7" markerWidth="20" markerHeight="28" orient="auto"><path d="M 1,1 V 13 L18,7 Z"></path></marker></defs><marker id="graph-305_class-extensionStart-margin" class="marker extension class" refX="18" refY="7" markerWidth="20" markerHeight="28" orient="auto" markerUnits="userSpaceOnUse" viewBox="0 0 20 14"><polygon points="10,7 18,13 18,1" style="stroke-width: 2; stroke-dasharray: 0;"></polygon></marker><defs><marker id="graph-305_class-extensionEnd-margin" class="marker extension class" refX="9" refY="7" markerWidth="20" markerHeight="28" orient="auto" markerUnits="userSpaceOnUse" viewBox="0 0 20 14"><polygon points="10,1 10,13 18,7" style="stroke-width: 2; stroke-dasharray: 0;"></polygon></marker></defs><defs><marker id="graph-305_class-compositionStart" class="marker composition class" refX="18" refY="7" markerWidth="190" markerHeight="240" orient="auto"><path d="M 18,7 L9,13 L1,7 L9,1 Z"></path></marker></defs><defs><marker id="graph-305_class-compositionEnd" class="marker composition class" refX="1" refY="7" markerWidth="20" markerHeight="28" orient="auto"><path d="M 18,7 L9,13 L1,7 L9,1 Z"></path></marker></defs><defs><marker id="graph-305_class-compositionStart-margin" class="marker composition class" refX="15" refY="7" markerWidth="190" markerHeight="240" orient="auto" markerUnits="userSpaceOnUse"><path viewBox="0 0 15 15" d="M 18,7 L9,13 L1,7 L9,1 Z" style="stroke-width: 0;"></path></marker></defs><defs><marker id="graph-305_class-compositionEnd-margin" class="marker composition class" refX="3.5" refY="7" markerWidth="20" markerHeight="28" orient="auto" markerUnits="userSpaceOnUse"><path d="M 18,7 L9,13 L1,7 L9,1 Z" style="stroke-width: 0;"></path></marker></defs><defs><marker id="graph-305_class-dependencyStart" class="marker dependency class" refX="6" refY="7" markerWidth="190" markerHeight="240" orient="auto"><path d="M 5,7 L9,13 L1,7 L9,1 Z"></path></marker></defs><defs><marker id="graph-305_class-dependencyEnd" class="marker dependency class" refX="13" refY="7" markerWidth="20" markerHeight="28" orient="auto"><path d="M 18,7 L9,13 L14,7 L9,1 Z"></path></marker></defs><defs><marker id="graph-305_class-dependencyStart-margin" class="marker dependency class" refX="4" refY="7" markerWidth="190" markerHeight="240" orient="auto" markerUnits="userSpaceOnUse"><path d="M 5,7 L9,13 L1,7 L9,1 Z" style="stroke-width: 0;"></path></marker></defs><defs><marker id="graph-305_class-dependencyEnd-margin" class="marker dependency class" refX="16" refY="7" markerWidth="20" markerHeight="28" orient="auto" markerUnits="userSpaceOnUse"><path d="M 18,7 L9,13 L14,7 L9,1 Z" style="stroke-width: 0;"></path></marker></defs><defs><marker id="graph-305_class-lollipopStart" class="marker lollipop class" refX="13" refY="7" markerWidth="190" markerHeight="240" orient="auto"><circle fill="transparent" cx="7" cy="7" r="6"></circle></marker></defs><defs><marker id="graph-305_class-lollipopEnd" class="marker lollipop class" refX="1" refY="7" markerWidth="190" markerHeight="240" orient="auto"><circle fill="transparent" cx="7" cy="7" r="6"></circle></marker></defs><defs><marker id="graph-305_class-lollipopStart-margin" class="marker lollipop class" refX="13" refY="7" markerWidth="190" markerHeight="240" orient="auto" markerUnits="userSpaceOnUse"><circle fill="transparent" cx="7" cy="7" r="6" stroke-width="2"></circle></marker></defs><defs><marker id="graph-305_class-lollipopEnd-margin" class="marker lollipop class" refX="1" refY="7" markerWidth="190" markerHeight="240" orient="auto" markerUnits="userSpaceOnUse"><circle fill="transparent" cx="7" cy="7" r="6" stroke-width="2"></circle></marker></defs><g class="root"><g class="clusters"></g><g class="edgePaths"><path d="M217.485,376L200.728,382.167C183.972,388.333,150.458,400.667,134.542,412.013C118.626,423.359,120.307,433.718,121.148,438.898L121.988,444.077" id="graph-305-id_OrderService_OrderDTO_1" class="edge-thickness-normal edge-pattern-solid relation" style=";;;" data-edge="true" data-et="edge" data-id="id_OrderService_OrderDTO_1" data-points="W3sieCI6MjE3LjQ4NDg2MzI4MTI1LCJ5IjozNzZ9LHsieCI6MTE2Ljk0NTMxMjUsInkiOjQxM30seyJ4IjoxMjIuOTQ5MDIwNzM3MzI3MTksInkiOjQ1MH1d" data-look="classic" marker-end="url(#graph-305_class-dependencyEnd)"></path><path d="M625.078,376L641.834,382.167C658.591,388.333,692.104,400.667,708.861,424C725.617,447.333,725.617,481.667,725.617,498.833L725.617,516" id="graph-305-id_OrderService_OrderItemDTO_2" class="edge-thickness-normal edge-pattern-solid relation" style=";;;" data-edge="true" data-et="edge" data-id="id_OrderService_OrderItemDTO_2" data-points="W3sieCI6NjI1LjA3NzYzNjcxODc1LCJ5IjozNzZ9LHsieCI6NzI1LjYxNzE4NzUsInkiOjQxM30seyJ4Ijo3MjUuNjE3MTg3NSwieSI6NTIyfV0=" data-look="classic" marker-end="url(#graph-305_class-dependencyEnd)"></path><path d="M252.671,152L261.28,158.167C269.889,164.333,287.106,176.667,301.433,188.308C315.759,199.95,327.194,210.9,332.911,216.375L338.628,221.85" id="graph-305-id_OrderController_OrderService_3" class="edge-thickness-normal edge-pattern-solid relation" style=";;;" data-edge="true" data-et="edge" data-id="id_OrderController_OrderService_3" data-points="W3sieCI6MjUyLjY3MDg3MTU1OTYzMzA0LCJ5IjoxNTJ9LHsieCI6MzA0LjMyNDIxODc1LCJ5IjoxODl9LHsieCI6MzQyLjk2MTgwOTQzMDgwMzU2LCJ5IjoyMjZ9XQ==" data-look="classic" marker-end="url(#graph-305_class-dependencyEnd)"></path><path d="M152.156,152L152.156,158.167C152.156,164.333,152.156,176.667,152.156,201.5C152.156,226.333,152.156,263.667,152.156,301C152.156,338.333,152.156,375.667,152.156,399.5C152.156,423.333,152.156,433.667,152.156,438.833L152.156,444" id="graph-305-id_OrderController_OrderDTO_4" class="edge-thickness-normal edge-pattern-solid relation" style=";;;" data-edge="true" data-et="edge" data-id="id_OrderController_OrderDTO_4" data-points="W3sieCI6MTUyLjE1NjI1LCJ5IjoxNTJ9LHsieCI6MTUyLjE1NjI1LCJ5IjoxODl9LHsieCI6MTUyLjE1NjI1LCJ5IjozMDF9LHsieCI6MTUyLjE1NjI1LCJ5Ijo0MTN9LHsieCI6MTUyLjE1NjI1LCJ5Ijo0NTB9XQ==" data-look="classic" marker-end="url(#graph-305_class-dependencyEnd)"></path><path d="M577.939,152L571.322,158.167C564.706,164.333,551.472,176.667,539.138,188.308C526.804,199.95,515.369,210.9,509.652,216.375L503.934,221.85" id="graph-305-id_CreateOrderCommand_OrderService_5" class="edge-thickness-normal edge-pattern-solid relation" style=";;;" data-edge="true" data-et="edge" data-id="id_CreateOrderCommand_OrderService_5" data-points="W3sieCI6NTc3LjkzOTI5MTg1Nzc5ODEsInkiOjE1Mn0seyJ4Ijo1MzguMjM4MjgxMjUsInkiOjE4OX0seyJ4Ijo0OTkuNjAwNjkwNTY5MTk2NDQsInkiOjIyNn1d" data-look="classic" marker-end="url(#graph-305_class-dependencyEnd)"></path><path d="M678.454,152L680.446,158.167C682.438,164.333,686.422,176.667,688.414,201.5C690.406,226.333,690.406,263.667,690.406,301C690.406,338.333,690.406,375.667,624.981,420.71C559.555,465.754,428.705,518.507,363.279,544.884L297.854,571.261" id="graph-305-id_CreateOrderCommand_OrderDTO_6" class="edge-thickness-normal edge-pattern-solid relation" style=";;;" data-edge="true" data-et="edge" data-id="id_CreateOrderCommand_OrderDTO_6" data-points="W3sieCI6Njc4LjQ1MzkxMzQxNzQzMTIsInkiOjE1Mn0seyJ4Ijo2OTAuNDA2MjUsInkiOjE4OX0seyJ4Ijo2OTAuNDA2MjUsInkiOjMwMX0seyJ4Ijo2OTAuNDA2MjUsInkiOjQxM30seyJ4IjoyOTIuMjg5MDYyNSwieSI6NTczLjUwNDI4MTgxNjA3MDZ9XQ==" data-look="classic" marker-end="url(#graph-305_class-dependencyEnd)"></path></g><g class="edgeLabels"><g class="edgeLabel" transform="translate(149.62638, 400.9729)"><g class="label" data-id="id_OrderService_OrderDTO_1" transform="translate(-15.2109375, -12)"><foreignObject width="30.421875" height="24"><div xmlns="http://www.w3.org/1999/xhtml" class="labelBkg" style="display: table-cell; white-space: nowrap; line-height: 1.5; max-width: 200px; text-align: center;"><span class="edgeLabel"><p>uses</p></span></div></foreignObject></g></g><g class="edgeLabel" transform="translate(725.6171875, 413)"><g class="label" data-id="id_OrderService_OrderItemDTO_2" transform="translate(-15.2109375, -12)"><foreignObject width="30.421875" height="24"><div xmlns="http://www.w3.org/1999/xhtml" class="labelBkg" style="display: table-cell; white-space: nowrap; line-height: 1.5; max-width: 200px; text-align: center;"><span class="edgeLabel"><p>uses</p></span></div></foreignObject></g></g><g class="edgeLabel" transform="translate(300.24257, 186.07626)"><g class="label" data-id="id_OrderController_OrderService_3" transform="translate(-15.2109375, -12)"><foreignObject width="30.421875" height="24"><div xmlns="http://www.w3.org/1999/xhtml" class="labelBkg" style="display: table-cell; white-space: nowrap; line-height: 1.5; max-width: 200px; text-align: center;"><span class="edgeLabel"><p>uses</p></span></div></foreignObject></g></g><g class="edgeLabel" transform="translate(152.15625, 301)"><g class="label" data-id="id_OrderController_OrderDTO_4" transform="translate(-26.4140625, -12)"><foreignObject width="52.828125" height="24"><div xmlns="http://www.w3.org/1999/xhtml" class="labelBkg" style="display: table-cell; white-space: nowrap; line-height: 1.5; max-width: 200px; text-align: center;"><span class="edgeLabel"><p>creates</p></span></div></foreignObject></g></g><g class="edgeLabel" transform="translate(538.52104, 188.73648)"><g class="label" data-id="id_CreateOrderCommand_OrderService_5" transform="translate(-15.2109375, -12)"><foreignObject width="30.421875" height="24"><div xmlns="http://www.w3.org/1999/xhtml" class="labelBkg" style="display: table-cell; white-space: nowrap; line-height: 1.5; max-width: 200px; text-align: center;"><span class="edgeLabel"><p>uses</p></span></div></foreignObject></g></g><g class="edgeLabel" transform="translate(690.40625, 301)"><g class="label" data-id="id_CreateOrderCommand_OrderDTO_6" transform="translate(-26.4140625, -12)"><foreignObject width="52.828125" height="24"><div xmlns="http://www.w3.org/1999/xhtml" class="labelBkg" style="display: table-cell; white-space: nowrap; line-height: 1.5; max-width: 200px; text-align: center;"><span class="edgeLabel"><p>creates</p></span></div></foreignObject></g></g></g><g class="nodes"><g class="node default" id="graph-305-classId-OrderDTO-451" data-look="classic" transform="translate(152.15625, 630)"><g class="basic label-container outer-path"><path d="M-140.1328125 -180 L140.1328125 -180 L140.1328125 180 L-140.1328125 180" stroke="none" stroke-width="0" fill="#ECECFF" style=""></path><path d="M-140.1328125 -180 C-42.70635499256446 -180, 54.72010251487109 -180, 140.1328125 -180 M-140.1328125 -180 C-62.38110912148301 -180, 15.370594257033986 -180, 140.1328125 -180 M140.1328125 -180 C140.1328125 -37.57579039870751, 140.1328125 104.84841920258498, 140.1328125 180 M140.1328125 -180 C140.1328125 -106.18846800201727, 140.1328125 -32.37693600403455, 140.1328125 180 M140.1328125 180 C74.88828297424453 180, 9.643753448489065 180, -140.1328125 180 M140.1328125 180 C28.14378193672046 180, -83.84524862655908 180, -140.1328125 180 M-140.1328125 180 C-140.1328125 63.28017248037993, -140.1328125 -53.43965503924014, -140.1328125 -180 M-140.1328125 180 C-140.1328125 65.67327980736954, -140.1328125 -48.65344038526092, -140.1328125 -180" stroke="#9370DB" stroke-width="1.3" fill="none" stroke-dasharray="0 0" style=""></path></g><g class="annotation-group text" transform="translate(0, -156)"></g><g class="label-group text" transform="translate(-36.890625, -156)"><g class="label" style="font-weight: bolder" transform="translate(0,-12)"><foreignObject width="73.78125" height="24"><div xmlns="http://www.w3.org/1999/xhtml" style="display: table-cell; white-space: nowrap; line-height: 1.5; max-width: 123px; text-align: center;"><span class="nodeLabel markdown-node-label" style=""><p>OrderDTO</p></span></div></foreignObject></g></g><g class="members-group text" transform="translate(-128.1328125, -108)"><g class="label" style="" transform="translate(0,-12)"><foreignObject width="84.78125" height="24"><div xmlns="http://www.w3.org/1999/xhtml" style="display: table-cell; white-space: nowrap; line-height: 1.5; max-width: 159px; text-align: center;"><span class="nodeLabel markdown-node-label" style=""><p>+int $userId</p></span></div></foreignObject></g><g class="label" style="" transform="translate(0,12)"><foreignObject width="98.140625" height="24"><div xmlns="http://www.w3.org/1999/xhtml" style="display: table-cell; white-space: nowrap; line-height: 1.5; max-width: 171px; text-align: center;"><span class="nodeLabel markdown-node-label" style=""><p>+array $items</p></span></div></foreignObject></g><g class="label" style="" transform="translate(0,36)"><foreignObject width="176.09375" height="24"><div xmlns="http://www.w3.org/1999/xhtml" style="display: table-cell; white-space: nowrap; line-height: 1.5; max-width: 264px; text-align: center;"><span class="nodeLabel markdown-node-label" style=""><p>+string $shippingAddress</p></span></div></foreignObject></g><g class="label" style="" transform="translate(0,60)"><foreignObject width="176.953125" height="24"><div xmlns="http://www.w3.org/1999/xhtml" style="display: table-cell; white-space: nowrap; line-height: 1.5; max-width: 260px; text-align: center;"><span class="nodeLabel markdown-node-label" style=""><p>+string $paymentMethod</p></span></div></foreignObject></g><g class="label" style="" transform="translate(0,84)"><foreignObject width="95.84375" height="24"><div xmlns="http://www.w3.org/1999/xhtml" style="display: table-cell; white-space: nowrap; line-height: 1.5; max-width: 172px; text-align: center;"><span class="nodeLabel markdown-node-label" style=""><p>+?float $total</p></span></div></foreignObject></g><g class="label" style="" transform="translate(0,108)"><foreignObject width="106.734375" height="24"><div xmlns="http://www.w3.org/1999/xhtml" style="display: table-cell; white-space: nowrap; line-height: 1.5; max-width: 187px; text-align: center;"><span class="nodeLabel markdown-node-label" style=""><p>+?string $notes</p></span></div></foreignObject></g></g><g class="methods-group text" transform="translate(-128.1328125, 60)"><g class="label" style="" transform="translate(0,-12)"><foreignObject width="136.296875" height="24"><div xmlns="http://www.w3.org/1999/xhtml" style="display: table-cell; white-space: nowrap; line-height: 1.5; max-width: 212px; text-align: center;"><span class="nodeLabel markdown-node-label" style=""><p>+__construct(data)</p></span></div></foreignObject></g><g class="label" style="" transform="translate(0,12)"><foreignObject width="136.59375" height="24"><div xmlns="http://www.w3.org/1999/xhtml" style="display: table-cell; white-space: nowrap; line-height: 1.5; max-width: 211px; text-align: center;"><span class="nodeLabel markdown-node-label" style=""><p>+toArray() : : array</p></span></div></foreignObject></g><g class="label" style="" transform="translate(0,36)"><foreignObject width="134.171875" height="24"><div xmlns="http://www.w3.org/1999/xhtml" style="display: table-cell; white-space: nowrap; line-height: 1.5; max-width: 208px; text-align: center;"><span class="nodeLabel markdown-node-label" style=""><p>+validate() : : void</p></span></div></foreignObject></g><g class="label" style="" transform="translate(0,60)"><foreignObject width="219.375" height="24"><div xmlns="http://www.w3.org/1999/xhtml" style="display: table-cell; white-space: nowrap; line-height: 1.5; max-width: 303px; text-align: center;"><span class="nodeLabel markdown-node-label" style=""><p>+fromRequest(Request) : : self</p></span></div></foreignObject></g><g class="label" style="" transform="translate(0,84)"><foreignObject width="181.5" height="24"><div xmlns="http://www.w3.org/1999/xhtml" style="display: table-cell; white-space: nowrap; line-height: 1.5; max-width: 259px; text-align: center;"><span class="nodeLabel markdown-node-label" style=""><p>+fromArray(array) : : self</p></span></div></foreignObject></g></g><g class="divider" style=""><path d="M-140.1328125 -132 C-73.36301269731216 -131.9997617624359, -6.593212894624315 -131.9995235248718, 140.1328125 -131.999 M-140.1328125 -132 C-29.52967418148721 -131.99960536316817, 81.07346413702558 -131.99921072633634, 140.1328125 -131.999" stroke="#9370DB" stroke-width="1.3" fill="none" stroke-dasharray="0 0" style=""></path></g><g class="divider" style=""><path d="M-140.1328125 36 C-75.86435351936616 36.000229312670726, -11.595894538732324 36.000458625341444, 140.1328125 36.001 M-140.1328125 36 C-52.95629066876745 36.00031104964025, 34.2202311624651 36.000622099280505, 140.1328125 36.001" stroke="#9370DB" stroke-width="1.3" fill="none" stroke-dasharray="0 0" style=""></path></g></g><g class="node default" id="graph-305-classId-OrderService-452" data-look="classic" transform="translate(421.28125, 301)"><g class="basic label-container outer-path"><path d="M-207.7109375 -75 L207.7109375 -75 L207.7109375 75 L-207.7109375 75" stroke="none" stroke-width="0" fill="#ECECFF" style=""></path><path d="M-207.7109375 -75 C-88.36266463035265 -75, 30.98560823929469 -75, 207.7109375 -75 M-207.7109375 -75 C-55.586583112619735 -75, 96.53777127476053 -75, 207.7109375 -75 M207.7109375 -75 C207.7109375 -32.75686860807839, 207.7109375 9.486262783843216, 207.7109375 75 M207.7109375 -75 C207.7109375 -35.139229611534056, 207.7109375 4.721540776931889, 207.7109375 75 M207.7109375 75 C41.996843171861855 75, -123.71725115627629 75, -207.7109375 75 M207.7109375 75 C119.99636729559609 75, 32.281797091192175 75, -207.7109375 75 M-207.7109375 75 C-207.7109375 21.708729642390487, -207.7109375 -31.582540715219025, -207.7109375 -75 M-207.7109375 75 C-207.7109375 32.17737159913686, -207.7109375 -10.645256801726276, -207.7109375 -75" stroke="#9370DB" stroke-width="1.3" fill="none" stroke-dasharray="0 0" style=""></path></g><g class="annotation-group text" transform="translate(0, -51)"></g><g class="label-group text" transform="translate(-49.359375, -51)"><g class="label" style="font-weight: bolder" transform="translate(0,-12)"><foreignObject width="98.71875" height="24"><div xmlns="http://www.w3.org/1999/xhtml" style="display: table-cell; white-space: nowrap; line-height: 1.5; max-width: 153px; text-align: center;"><span class="nodeLabel markdown-node-label" style=""><p>OrderService</p></span></div></foreignObject></g></g><g class="members-group text" transform="translate(-195.7109375, -3)"></g><g class="methods-group text" transform="translate(-195.7109375, 27)"><g class="label" style="" transform="translate(0,-12)"><foreignObject width="281.328125" height="24"><div xmlns="http://www.w3.org/1999/xhtml" style="display: table-cell; white-space: nowrap; line-height: 1.5; max-width: 360px; text-align: center;"><span class="nodeLabel markdown-node-label" style=""><p>+createOrder(OrderDTO $dto) : : Order</p></span></div></foreignObject></g><g class="label" style="" transform="translate(0,12)"><foreignObject width="342.0625" height="24"><div xmlns="http://www.w3.org/1999/xhtml" style="display: table-cell; white-space: nowrap; line-height: 1.5; max-width: 427px; text-align: center;"><span class="nodeLabel markdown-node-label" style=""><p>+updateOrder(int $id, OrderDTO $dto) : : Order</p></span></div></foreignObject></g></g><g class="divider" style=""><path d="M-207.7109375 -27 C-49.16776197672394 -26.999618356217944, 109.37541354655212 -26.999236712435888, 207.7109375 -26.999 M-207.7109375 -27 C-111.00163576139666 -26.999767202192377, -14.292334022793312 -26.999534404384754, 207.7109375 -26.999" stroke="#9370DB" stroke-width="1.3" fill="none" stroke-dasharray="0 0" style=""></path></g><g class="divider" style=""><path d="M-207.7109375 -3 C-105.80925594453751 -2.9997547031398972, -3.907574389075023 -2.999509406279795, 207.7109375 -2.999 M-207.7109375 -3 C-73.2857097991672 -2.9996764127365685, 61.13951790166561 -2.999352825473137, 207.7109375 -2.999" stroke="#9370DB" stroke-width="1.3" fill="none" stroke-dasharray="0 0" style=""></path></g></g><g class="node default" id="graph-305-classId-OrderItemDTO-453" data-look="classic" transform="translate(725.6171875, 630)"><g class="basic label-container outer-path"><path d="M-107.17578125 -108 L107.17578125 -108 L107.17578125 108 L-107.17578125 108" stroke="none" stroke-width="0" fill="#ECECFF" style=""></path><path d="M-107.17578125 -108 C-42.577111327928236 -108, 22.021558594143528 -108, 107.17578125 -108 M-107.17578125 -108 C-36.64445251342099 -108, 33.886876223158026 -108, 107.17578125 -108 M107.17578125 -108 C107.17578125 -39.9795512421438, 107.17578125 28.040897515712402, 107.17578125 108 M107.17578125 -108 C107.17578125 -47.670939944034934, 107.17578125 12.658120111930131, 107.17578125 108 M107.17578125 108 C28.406102212406765 108, -50.36357682518647 108, -107.17578125 108 M107.17578125 108 C44.61189195053033 108, -17.951997348939344 108, -107.17578125 108 M-107.17578125 108 C-107.17578125 53.710391729083234, -107.17578125 -0.5792165418335316, -107.17578125 -108 M-107.17578125 108 C-107.17578125 31.89028200403625, -107.17578125 -44.2194359919275, -107.17578125 -108" stroke="#9370DB" stroke-width="1.3" fill="none" stroke-dasharray="0 0" style=""></path></g><g class="annotation-group text" transform="translate(0, -84)"></g><g class="label-group text" transform="translate(-53.7578125, -84)"><g class="label" style="font-weight: bolder" transform="translate(0,-12)"><foreignObject width="107.515625" height="24"><div xmlns="http://www.w3.org/1999/xhtml" style="display: table-cell; white-space: nowrap; line-height: 1.5; max-width: 162px; text-align: center;"><span class="nodeLabel markdown-node-label" style=""><p>OrderItemDTO</p></span></div></foreignObject></g></g><g class="members-group text" transform="translate(-95.17578125, -36)"><g class="label" style="" transform="translate(0,-12)"><foreignObject width="110.265625" height="24"><div xmlns="http://www.w3.org/1999/xhtml" style="display: table-cell; white-space: nowrap; line-height: 1.5; max-width: 185px; text-align: center;"><span class="nodeLabel markdown-node-label" style=""><p>+int $productId</p></span></div></foreignObject></g><g class="label" style="" transform="translate(0,12)"><foreignObject width="101.203125" height="24"><div xmlns="http://www.w3.org/1999/xhtml" style="display: table-cell; white-space: nowrap; line-height: 1.5; max-width: 175px; text-align: center;"><span class="nodeLabel markdown-node-label" style=""><p>+int $quantity</p></span></div></foreignObject></g><g class="label" style="" transform="translate(0,36)"><foreignObject width="97.796875" height="24"><div xmlns="http://www.w3.org/1999/xhtml" style="display: table-cell; white-space: nowrap; line-height: 1.5; max-width: 172px; text-align: center;"><span class="nodeLabel markdown-node-label" style=""><p>+?float $price</p></span></div></foreignObject></g></g><g class="methods-group text" transform="translate(-95.17578125, 60)"><g class="label" style="" transform="translate(0,-12)"><foreignObject width="136.296875" height="24"><div xmlns="http://www.w3.org/1999/xhtml" style="display: table-cell; white-space: nowrap; line-height: 1.5; max-width: 212px; text-align: center;"><span class="nodeLabel markdown-node-label" style=""><p>+__construct(data)</p></span></div></foreignObject></g><g class="label" style="" transform="translate(0,12)"><foreignObject width="136.59375" height="24"><div xmlns="http://www.w3.org/1999/xhtml" style="display: table-cell; white-space: nowrap; line-height: 1.5; max-width: 211px; text-align: center;"><span class="nodeLabel markdown-node-label" style=""><p>+toArray() : : array</p></span></div></foreignObject></g></g><g class="divider" style=""><path d="M-107.17578125 -60 C-32.49030316463366 -59.99965157483709, 42.19517492073268 -59.99930314967417, 107.17578125 -59.999 M-107.17578125 -60 C-25.994169769225536 -59.99962126886068, 55.18744171154893 -59.99924253772136, 107.17578125 -59.999" stroke="#9370DB" stroke-width="1.3" fill="none" stroke-dasharray="0 0" style=""></path></g><g class="divider" style=""><path d="M-107.17578125 36 C-43.3562639744211 36.00029773292311, 20.463253301157806 36.00059546584621, 107.17578125 36.001 M-107.17578125 36 C-59.05553761933086 36.00022449215238, -10.935293988661726 36.00044898430475, 107.17578125 36.001" stroke="#9370DB" stroke-width="1.3" fill="none" stroke-dasharray="0 0" style=""></path></g></g><g class="node default" id="graph-305-classId-OrderController-454" data-look="classic" transform="translate(152.15625, 80)"><g class="basic label-container outer-path"><path d="M-144.15625 -72 L144.15625 -72 L144.15625 72 L-144.15625 72" stroke="none" stroke-width="0" fill="#ECECFF" style=""></path><path d="M-144.15625 -72 C-51.94703734489278 -72, 40.262175310214445 -72, 144.15625 -72 M-144.15625 -72 C-43.635291602314666 -72, 56.88566679537067 -72, 144.15625 -72 M144.15625 -72 C144.15625 -37.919552275237, 144.15625 -3.839104550474005, 144.15625 72 M144.15625 -72 C144.15625 -24.985347393917863, 144.15625 22.029305212164275, 144.15625 72 M144.15625 72 C45.52275339020645 72, -53.11074321958711 72, -144.15625 72 M144.15625 72 C49.55759089634188 72, -45.04106820731624 72, -144.15625 72 M-144.15625 72 C-144.15625 37.637005696663444, -144.15625 3.2740113933268873, -144.15625 -72 M-144.15625 72 C-144.15625 38.219024887893184, -144.15625 4.438049775786368, -144.15625 -72" stroke="#9370DB" stroke-width="1.3" fill="none" stroke-dasharray="0 0" style=""></path></g><g class="annotation-group text" transform="translate(0, -48)"></g><g class="label-group text" transform="translate(-59.703125, -48)"><g class="label" style="font-weight: bolder" transform="translate(0,-12)"><foreignObject width="119.40625" height="24"><div xmlns="http://www.w3.org/1999/xhtml" style="display: table-cell; white-space: nowrap; line-height: 1.5; max-width: 175px; text-align: center;"><span class="nodeLabel markdown-node-label" style=""><p>OrderController</p></span></div></foreignObject></g></g><g class="members-group text" transform="translate(-132.15625, 0)"><g class="label" style="" transform="translate(0,-12)"><foreignObject width="162.109375" height="24"><div xmlns="http://www.w3.org/1999/xhtml" style="display: table-cell; white-space: nowrap; line-height: 1.5; max-width: 242px; text-align: center;"><span class="nodeLabel markdown-node-label" style=""><p>-OrderService $service</p></span></div></foreignObject></g></g><g class="methods-group text" transform="translate(-132.15625, 48)"><g class="label" style="" transform="translate(0,-12)"><foreignObject width="204.609375" height="24"><div xmlns="http://www.w3.org/1999/xhtml" style="display: table-cell; white-space: nowrap; line-height: 1.5; max-width: 289px; text-align: center;"><span class="nodeLabel markdown-node-label" style=""><p>+store(Request) : : Response</p></span></div></foreignObject></g></g><g class="divider" style=""><path d="M-144.15625 -24 C-58.037470863786126 -23.999701300570955, 28.081308272427748 -23.999402601141913, 144.15625 -23.999 M-144.15625 -24 C-62.81874138775544 -23.99971788421032, 18.518767224489125 -23.99943576842064, 144.15625 -23.999" stroke="#9370DB" stroke-width="1.3" fill="none" stroke-dasharray="0 0" style=""></path></g><g class="divider" style=""><path d="M-144.15625 24 C-38.46902949575541 24.000366571759823, 67.21819100848919 24.00073314351965, 144.15625 24.001 M-144.15625 24 C-48.48184292717559 24.00033184272993, 47.19256414564882 24.00066368545986, 144.15625 24.001" stroke="#9370DB" stroke-width="1.3" fill="none" stroke-dasharray="0 0" style=""></path></g></g><g class="node default" id="graph-305-classId-CreateOrderCommand-455" data-look="classic" transform="translate(655.1953125, 80)"><g class="basic label-container outer-path"><path d="M-134.77734375 -72 L134.77734375 -72 L134.77734375 72 L-134.77734375 72" stroke="none" stroke-width="0" fill="#ECECFF" style=""></path><path d="M-134.77734375 -72 C-48.06538111919983 -72, 38.646581511600345 -72, 134.77734375 -72 M-134.77734375 -72 C-45.773826996001105 -72, 43.22968975799779 -72, 134.77734375 -72 M134.77734375 -72 C134.77734375 -27.259707737104378, 134.77734375 17.480584525791244, 134.77734375 72 M134.77734375 -72 C134.77734375 -32.90874107661882, 134.77734375 6.182517846762366, 134.77734375 72 M134.77734375 72 C40.04465508220467 72, -54.68803358559066 72, -134.77734375 72 M134.77734375 72 C64.01887104053277 72, -6.739601668934455 72, -134.77734375 72 M-134.77734375 72 C-134.77734375 42.54171557842844, -134.77734375 13.083431156856882, -134.77734375 -72 M-134.77734375 72 C-134.77734375 20.752572609062675, -134.77734375 -30.49485478187465, -134.77734375 -72" stroke="#9370DB" stroke-width="1.3" fill="none" stroke-dasharray="0 0" style=""></path></g><g class="annotation-group text" transform="translate(0, -48)"></g><g class="label-group text" transform="translate(-83.4453125, -48)"><g class="label" style="font-weight: bolder" transform="translate(0,-12)"><foreignObject width="166.890625" height="24"><div xmlns="http://www.w3.org/1999/xhtml" style="display: table-cell; white-space: nowrap; line-height: 1.5; max-width: 222px; text-align: center;"><span class="nodeLabel markdown-node-label" style=""><p>CreateOrderCommand</p></span></div></foreignObject></g></g><g class="members-group text" transform="translate(-122.77734375, 0)"><g class="label" style="" transform="translate(0,-12)"><foreignObject width="162.109375" height="24"><div xmlns="http://www.w3.org/1999/xhtml" style="display: table-cell; white-space: nowrap; line-height: 1.5; max-width: 242px; text-align: center;"><span class="nodeLabel markdown-node-label" style=""><p>-OrderService $service</p></span></div></foreignObject></g></g><g class="methods-group text" transform="translate(-122.77734375, 48)"><g class="label" style="" transform="translate(0,-12)"><foreignObject width="124.5" height="24"><div xmlns="http://www.w3.org/1999/xhtml" style="display: table-cell; white-space: nowrap; line-height: 1.5; max-width: 195px; text-align: center;"><span class="nodeLabel markdown-node-label" style=""><p>+handle() : : void</p></span></div></foreignObject></g></g><g class="divider" style=""><path d="M-134.77734375 -24 C-62.82992660732502 -23.99973308786499, 9.117490535349958 -23.999466175729978, 134.77734375 -23.999 M-134.77734375 -24 C-70.75681530295175 -23.999762495213712, -6.736286855903501 -23.999524990427428, 134.77734375 -23.999" stroke="#9370DB" stroke-width="1.3" fill="none" stroke-dasharray="0 0" style=""></path></g><g class="divider" style=""><path d="M-134.77734375 24 C-45.56233718387877 24.000330971823914, 43.652669382242465 24.000661943647827, 134.77734375 24.001 M-134.77734375 24 C-48.43486324866652 24.000320315262563, 37.90761725266697 24.000640630525126, 134.77734375 24.001" stroke="#9370DB" stroke-width="1.3" fill="none" stroke-dasharray="0 0" style=""></path></g></g></g></g></g></g></svg>