<?xml version="1.0" encoding="UTF-8"?>
<?xml-stylesheet href="https://cdnjs.cloudflare.com/ajax/libs/font-awesome/7.2.0/css/all.min.css" type="text/css"?>
<svg id="graph-456" width="100%" xmlns="http://www.w3.org/2000/svg" class="classDiagram" style="overflow: hidden; max-width: 100%; touch-action: none; user-select: none; -webkit-user-drag: none; -webkit-tap-highlight-color: rgba(0, 0, 0, 0); background-color: rgb(255, 255, 255);" role="graphics-document document" aria-roledescription="class" height="100%" xmlns:xlink="http://www.w3.org/1999/xlink" xmlns:ev="http://www.w3.org/2001/xml-events"><defs><filter id="graph-456-drop-shadow" height="130%" width="130%"><feDropShadow dx="4" dy="4" stdDeviation="0" flood-opacity="0.06" flood-color="#000000"></feDropShadow></filter></defs><defs><filter id="graph-456-drop-shadow-small" height="150%" width="150%"><feDropShadow dx="2" dy="2" stdDeviation="0" flood-opacity="0.06" flood-color="#000000"></feDropShadow></filter></defs><g id="viewport-20260731091357731" class="svg-pan-zoom_viewport" transform="matrix(0.6419011210986901,0,0,0.6419011210986901,209.31206180411792,95.9156275107434)" style="transform: matrix(0.641901, 0, 0, 0.641901, 209.312, 95.9156);"><style>#graph-456{font-family:"trebuchet ms",verdana,arial,sans-serif;font-size:16px;fill:#333;}@keyframes edge-animation-frame{from{stroke-dashoffset:0;}}@keyframes dash{to{stroke-dashoffset:0;}}#graph-456 .edge-animation-slow{stroke-dasharray:9,5!important;stroke-dashoffset:900;animation:dash 50s linear infinite;stroke-linecap:round;}#graph-456 .edge-animation-fast{stroke-dasharray:9,5!important;stroke-dashoffset:900;animation:dash 20s linear infinite;stroke-linecap:round;}#graph-456 .error-icon{fill:#552222;}#graph-456 .error-text{fill:#552222;stroke:#552222;}#graph-456 .edge-thickness-normal{stroke-width:1px;}#graph-456 .edge-thickness-thick{stroke-width:3.5px;}#graph-456 .edge-pattern-solid{stroke-dasharray:0;}#graph-456 .edge-thickness-invisible{stroke-width:0;fill:none;}#graph-456 .edge-pattern-dashed{stroke-dasharray:3;}#graph-456 .edge-pattern-dotted{stroke-dasharray:2;}#graph-456 .marker{fill:#333333;stroke:#333333;}#graph-456 .marker.cross{stroke:#333333;}#graph-456 svg{font-family:"trebuchet ms",verdana,arial,sans-serif;font-size:16px;}#graph-456 p{margin:0;}#graph-456 g.classGroup text{fill:#9370DB;stroke:none;font-family:"trebuchet ms",verdana,arial,sans-serif;font-size:10px;}#graph-456 g.classGroup text .title{font-weight:bolder;}#graph-456 .cluster-label text{fill:#333;}#graph-456 .cluster-label span{color:#333;}#graph-456 .cluster-label span p{background-color:transparent;}#graph-456 .cluster rect{fill:#ffffde;stroke:#aaaa33;stroke-width:1px;}#graph-456 .cluster text{fill:#333;}#graph-456 .cluster span{color:#333;}#graph-456 .nodeLabel,#graph-456 .edgeLabel{color:#131300;}#graph-456 .noteLabel .nodeLabel,#graph-456 .noteLabel .edgeLabel{color:black;}#graph-456 .edgeLabel .label rect{fill:#ECECFF;}#graph-456 .label text{fill:#131300;}#graph-456 .labelBkg{background:#ECECFF;}#graph-456 .edgeLabel .label span{background:#ECECFF;}#graph-456 .classTitle{font-weight:bolder;}#graph-456 .node rect,#graph-456 .node circle,#graph-456 .node ellipse,#graph-456 .node polygon,#graph-456 .node path{fill:#ECECFF;stroke:#9370DB;stroke-width:1;}#graph-456 .divider{stroke:#9370DB;stroke-width:1;}#graph-456 g.clickable{cursor:pointer;}#graph-456 g.classGroup rect{fill:#ECECFF;stroke:#9370DB;}#graph-456 g.classGroup line{stroke:#9370DB;stroke-width:1;}#graph-456 .classLabel .box{stroke:none;stroke-width:0;fill:#ECECFF;opacity:0.5;}#graph-456 .classLabel .label{fill:#9370DB;font-size:10px;}#graph-456 .relation{stroke:#333333;stroke-width:1;fill:none;}#graph-456 .dashed-line{stroke-dasharray:3;}#graph-456 .dotted-line{stroke-dasharray:1 2;}#graph-456 [id$="-compositionStart"],#graph-456 .composition{fill:#333333!important;stroke:#333333!important;stroke-width:1;}#graph-456 [id$="-compositionEnd"],#graph-456 .composition{fill:#333333!important;stroke:#333333!important;stroke-width:1;}#graph-456 [id$="-dependencyStart"],#graph-456 .dependency{fill:#333333!important;stroke:#333333!important;stroke-width:1;}#graph-456 [id$="-dependencyEnd"],#graph-456 .dependency{fill:#333333!important;stroke:#333333!important;stroke-width:1;}#graph-456 [id$="-extensionStart"],#graph-456 .extension{fill:transparent!important;stroke:#333333!important;stroke-width:1;}#graph-456 [id$="-extensionEnd"],#graph-456 .extension{fill:transparent!important;stroke:#333333!important;stroke-width:1;}#graph-456 [id$="-aggregationStart"],#graph-456 .aggregation{fill:transparent!important;stroke:#333333!important;stroke-width:1;}#graph-456 [id$="-aggregationEnd"],#graph-456 .aggregation{fill:transparent!important;stroke:#333333!important;stroke-width:1;}#graph-456 [id$="-lollipopStart"],#graph-456 .lollipop{fill:#ECECFF!important;stroke:#333333!important;stroke-width:1;}#graph-456 [id$="-lollipopEnd"],#graph-456 .lollipop{fill:#ECECFF!important;stroke:#333333!important;stroke-width:1;}#graph-456 .edgeTerminals{font-size:11px;line-height:initial;}#graph-456 .classTitleText{text-anchor:middle;font-size:18px;fill:#333;}#graph-456 .edgeLabel[data-look="neo"]{background-color:rgba(232,232,232, 0.8);text-align:center;}#graph-456 .edgeLabel[data-look="neo"] p{background-color:rgba(232,232,232, 0.8);}#graph-456 .edgeLabel[data-look="neo"] rect{opacity:0.5;background-color:rgba(232,232,232, 0.8);fill:rgba(232,232,232, 0.8);}#graph-456 .label-icon{display:inline-block;height:1em;overflow:visible;vertical-align:-0.125em;}#graph-456 .node .label-icon path{fill:currentColor;stroke:revert;stroke-width:revert;}#graph-456 .node .neo-node{stroke:#9370DB;}#graph-456 [data-look="neo"].node rect,#graph-456 [data-look="neo"].cluster rect,#graph-456 [data-look="neo"].node polygon{stroke:#9370DB;filter:drop-shadow(1px 2px 2px rgba(185, 185, 185, 1));}#graph-456 [data-look="neo"].swimlane.cluster rect{filter:none;}#graph-456 [data-look="neo"].node path{stroke:#9370DB;stroke-width:1px;}#graph-456 [data-look="neo"].node .outer-path{filter:drop-shadow(1px 2px 2px rgba(185, 185, 185, 1));}#graph-456 [data-look="neo"].node .neo-line path{stroke:#9370DB;filter:none;}#graph-456 [data-look="neo"].node circle{stroke:#9370DB;filter:drop-shadow(1px 2px 2px rgba(185, 185, 185, 1));}#graph-456 [data-look="neo"].node circle .state-start{fill:#000000;}#graph-456 [data-look="neo"].icon-shape .icon{fill:#9370DB;filter:drop-shadow(1px 2px 2px rgba(185, 185, 185, 1));}#graph-456 [data-look="neo"].icon-shape .icon-neo path{stroke:#9370DB;filter:drop-shadow(1px 2px 2px rgba(185, 185, 185, 1));}#graph-456 :root{--mermaid-font-family:"trebuchet ms",verdana,arial,sans-serif;}</style><g><defs><marker id="graph-456_class-aggregationStart" class="marker aggregation class" refX="18" refY="7" markerWidth="190" markerHeight="240" orient="auto"><path d="M 18,7 L9,13 L1,7 L9,1 Z"></path></marker></defs><defs><marker id="graph-456_class-aggregationEnd" class="marker aggregation class" refX="1" refY="7" markerWidth="20" markerHeight="28" orient="auto"><path d="M 18,7 L9,13 L1,7 L9,1 Z"></path></marker></defs><defs><marker id="graph-456_class-aggregationStart-margin" class="marker aggregation class" refX="15" refY="7" markerWidth="190" markerHeight="240" orient="auto" markerUnits="userSpaceOnUse"><path d="M 18,7 L9,13 L1,7 L9,1 Z" style="stroke-width: 2;"></path></marker></defs><defs><marker id="graph-456_class-aggregationEnd-margin" class="marker aggregation class" refX="1" refY="7" markerWidth="20" markerHeight="28" orient="auto" markerUnits="userSpaceOnUse"><path d="M 18,7 L9,13 L1,7 L9,1 Z" style="stroke-width: 2;"></path></marker></defs><defs><marker id="graph-456_class-extensionStart" class="marker extension class" refX="18" refY="7" markerWidth="20" markerHeight="28" orient="auto" markerUnits="userSpaceOnUse"><path d="M 1,7 L18,13 V 1 Z"></path></marker></defs><defs><marker id="graph-456_class-extensionEnd" class="marker extension class" refX="1" refY="7" markerWidth="20" markerHeight="28" orient="auto"><path d="M 1,1 V 13 L18,7 Z"></path></marker></defs><marker id="graph-456_class-extensionStart-margin" class="marker extension class" refX="18" refY="7" markerWidth="20" markerHeight="28" orient="auto" markerUnits="userSpaceOnUse" viewBox="0 0 20 14"><polygon points="10,7 18,13 18,1" style="stroke-width: 2; stroke-dasharray: 0;"></polygon></marker><defs><marker id="graph-456_class-extensionEnd-margin" class="marker extension class" refX="9" refY="7" markerWidth="20" markerHeight="28" orient="auto" markerUnits="userSpaceOnUse" viewBox="0 0 20 14"><polygon points="10,1 10,13 18,7" style="stroke-width: 2; stroke-dasharray: 0;"></polygon></marker></defs><defs><marker id="graph-456_class-compositionStart" class="marker composition class" refX="18" refY="7" markerWidth="190" markerHeight="240" orient="auto"><path d="M 18,7 L9,13 L1,7 L9,1 Z"></path></marker></defs><defs><marker id="graph-456_class-compositionEnd" class="marker composition class" refX="1" refY="7" markerWidth="20" markerHeight="28" orient="auto"><path d="M 18,7 L9,13 L1,7 L9,1 Z"></path></marker></defs><defs><marker id="graph-456_class-compositionStart-margin" class="marker composition class" refX="15" refY="7" markerWidth="190" markerHeight="240" orient="auto" markerUnits="userSpaceOnUse"><path viewBox="0 0 15 15" d="M 18,7 L9,13 L1,7 L9,1 Z" style="stroke-width: 0;"></path></marker></defs><defs><marker id="graph-456_class-compositionEnd-margin" class="marker composition class" refX="3.5" refY="7" markerWidth="20" markerHeight="28" orient="auto" markerUnits="userSpaceOnUse"><path d="M 18,7 L9,13 L1,7 L9,1 Z" style="stroke-width: 0;"></path></marker></defs><defs><marker id="graph-456_class-dependencyStart" class="marker dependency class" refX="6" refY="7" markerWidth="190" markerHeight="240" orient="auto"><path d="M 5,7 L9,13 L1,7 L9,1 Z"></path></marker></defs><defs><marker id="graph-456_class-dependencyEnd" class="marker dependency class" refX="13" refY="7" markerWidth="20" markerHeight="28" orient="auto"><path d="M 18,7 L9,13 L14,7 L9,1 Z"></path></marker></defs><defs><marker id="graph-456_class-dependencyStart-margin" class="marker dependency class" refX="4" refY="7" markerWidth="190" markerHeight="240" orient="auto" markerUnits="userSpaceOnUse"><path d="M 5,7 L9,13 L1,7 L9,1 Z" style="stroke-width: 0;"></path></marker></defs><defs><marker id="graph-456_class-dependencyEnd-margin" class="marker dependency class" refX="16" refY="7" markerWidth="20" markerHeight="28" orient="auto" markerUnits="userSpaceOnUse"><path d="M 18,7 L9,13 L14,7 L9,1 Z" style="stroke-width: 0;"></path></marker></defs><defs><marker id="graph-456_class-lollipopStart" class="marker lollipop class" refX="13" refY="7" markerWidth="190" markerHeight="240" orient="auto"><circle fill="transparent" cx="7" cy="7" r="6"></circle></marker></defs><defs><marker id="graph-456_class-lollipopEnd" class="marker lollipop class" refX="1" refY="7" markerWidth="190" markerHeight="240" orient="auto"><circle fill="transparent" cx="7" cy="7" r="6"></circle></marker></defs><defs><marker id="graph-456_class-lollipopStart-margin" class="marker lollipop class" refX="13" refY="7" markerWidth="190" markerHeight="240" orient="auto" markerUnits="userSpaceOnUse"><circle fill="transparent" cx="7" cy="7" r="6" stroke-width="2"></circle></marker></defs><defs><marker id="graph-456_class-lollipopEnd-margin" class="marker lollipop class" refX="1" refY="7" markerWidth="190" markerHeight="240" orient="auto" markerUnits="userSpaceOnUse"><circle fill="transparent" cx="7" cy="7" r="6" stroke-width="2"></circle></marker></defs><g class="root"><g class="clusters"></g><g class="edgePaths"><path d="M212.505,193.766L196.931,200.972C181.357,208.178,150.21,222.589,134.636,237.961C119.063,253.333,119.063,269.667,119.063,277.833L119.063,286" id="graph-456-id_Report_SalesReport_1" class="edge-thickness-normal edge-pattern-solid relation" style=";;;" data-edge="true" data-et="edge" data-id="id_Report_SalesReport_1" data-points="W3sieCI6MjI4LjE2MDE1NjI1LCJ5IjoxODYuNTIyOTMxNDE2MzgwMTd9LHsieCI6MTE5LjA2MjUsInkiOjIzN30seyJ4IjoxMTkuMDYyNSwieSI6Mjg2fV0=" data-look="classic" marker-start="url(#graph-456_class-extensionStart)"></path><path d="M400.756,217.228L400.589,220.523C400.421,223.818,400.085,230.409,399.918,241.871C399.75,253.333,399.75,269.667,399.75,277.833L399.75,286" id="graph-456-id_Report_InventoryReport_2" class="edge-thickness-normal edge-pattern-solid relation" style=";;;" data-edge="true" data-et="edge" data-id="id_Report_InventoryReport_2" data-points="W3sieCI6NDAxLjYzMzI1MzA1NDUxMTMsInkiOjIwMH0seyJ4IjozOTkuNzUsInkiOjIzN30seyJ4IjozOTkuNzUsInkiOjI4Nn1d" data-look="classic" marker-start="url(#graph-456_class-extensionStart)"></path><path d="M600.484,195.36L615.219,202.3C629.953,209.24,659.422,223.12,674.156,238.227C688.891,253.333,688.891,269.667,688.891,277.833L688.891,286" id="graph-456-id_Report_CustomerReport_3" class="edge-thickness-normal edge-pattern-solid relation" style=";;;" data-edge="true" data-et="edge" data-id="id_Report_CustomerReport_3" data-points="W3sieCI6NTg0Ljg3ODkwNjI1LCJ5IjoxODguMDA5Mjk2Mjc3MzM4OTN9LHsieCI6Njg4Ljg5MDYyNSwieSI6MjM3fSx7IngiOjY4OC44OTA2MjUsInkiOjI4Nn1d" data-look="classic" marker-start="url(#graph-456_class-extensionStart)"></path><path d="M584.879,144.959L651.679,160.299C718.479,175.639,852.079,206.32,918.88,226.826C985.68,247.333,985.68,257.667,985.68,262.833L985.68,268" id="graph-456-id_Report_ReportFormatter_4" class="edge-thickness-normal edge-pattern-solid relation" style=";;;" data-edge="true" data-et="edge" data-id="id_Report_ReportFormatter_4" data-points="W3sieCI6NTg0Ljg3ODkwNjI1LCJ5IjoxNDQuOTU4OTU4NjIxMzg3Mzh9LHsieCI6OTg1LjY3OTY4NzUsInkiOjIzN30seyJ4Ijo5ODUuNjc5Njg3NSwieSI6Mjc0fV0=" data-look="classic" marker-end="url(#graph-456_class-dependencyEnd)"></path><path d="M841.468,376.798L768.665,390.832C695.862,404.866,550.256,432.933,477.453,453.133C404.65,473.333,404.65,485.667,404.65,491.833L404.65,498" id="graph-456-id_ReportFormatter_PdfFormatter_5" class="edge-thickness-normal edge-pattern-solid relation" style=";;;" data-edge="true" data-et="edge" data-id="id_ReportFormatter_PdfFormatter_5" data-points="W3sieCI6ODU4LjQwNjI1LCJ5IjozNzMuNTMzNDAxNDU5NTU5NTd9LHsieCI6NDA0LjY1MDM5MDYyNSwieSI6NDYxfSx7IngiOjQwNC42NTAzOTA2MjUsInkiOjQ5OH1d" data-look="classic" marker-start="url(#graph-456_class-extensionStart)"></path><path d="M842.347,405.211L818.638,414.509C794.929,423.808,747.51,442.404,723.801,457.869C700.092,473.333,700.092,485.667,700.092,491.833L700.092,498" id="graph-456-id_ReportFormatter_ExcelFormatter_6" class="edge-thickness-normal edge-pattern-solid relation" style=";;;" data-edge="true" data-et="edge" data-id="id_ReportFormatter_ExcelFormatter_6" data-points="W3sieCI6ODU4LjQwNjI1LCJ5IjozOTguOTEzMjY4MjcxOTk5MjR9LHsieCI6NzAwLjA5MTc5Njg3NSwieSI6NDYxfSx7IngiOjcwMC4wOTE3OTY4NzUsInkiOjQ5OH1d" data-look="classic" marker-start="url(#graph-456_class-extensionStart)"></path><path d="M993.899,441.182L994.193,444.485C994.488,447.788,995.077,454.394,995.372,463.864C995.666,473.333,995.666,485.667,995.666,491.833L995.666,498" id="graph-456-id_ReportFormatter_CsvFormatter_7" class="edge-thickness-normal edge-pattern-solid relation" style=";;;" data-edge="true" data-et="edge" data-id="id_ReportFormatter_CsvFormatter_7" data-points="W3sieCI6OTkyLjM2Njk2MDc5Nzk5MSwieSI6NDI0fSx7IngiOjk5NS42NjYwMTU2MjUsInkiOjQ2MX0seyJ4Ijo5OTUuNjY2MDE1NjI1LCJ5Ijo0OTh9XQ==" data-look="classic" marker-start="url(#graph-456_class-extensionStart)"></path><path d="M1129.14,401.849L1155.901,411.707C1182.663,421.566,1236.186,441.283,1262.947,457.308C1289.709,473.333,1289.709,485.667,1289.709,491.833L1289.709,498" id="graph-456-id_ReportFormatter_JsonFormatter_8" class="edge-thickness-normal edge-pattern-solid relation" style=";;;" data-edge="true" data-et="edge" data-id="id_ReportFormatter_JsonFormatter_8" data-points="W3sieCI6MTExMi45NTMxMjUsInkiOjM5NS44ODU2OTUzODA0MDUxfSx7IngiOjEyODkuNzA4OTg0Mzc1LCJ5Ijo0NjF9LHsieCI6MTI4OS43MDg5ODQzNzUsInkiOjQ5OH1d" data-look="classic" marker-start="url(#graph-456_class-extensionStart)"></path></g><g class="edgeLabels"><g class="edgeLabel" transform="translate(119.0625, 237)"><g class="label" data-id="id_Report_SalesReport_1" transform="translate(-27.9765625, -12)"><foreignObject width="55.953125" height="24"><div xmlns="http://www.w3.org/1999/xhtml" class="labelBkg" style="display: table-cell; white-space: nowrap; line-height: 1.5; max-width: 200px; text-align: center;"><span class="edgeLabel"><p>extends</p></span></div></foreignObject></g></g><g class="edgeLabel" transform="translate(399.75, 237)"><g class="label" data-id="id_Report_InventoryReport_2" transform="translate(-27.9765625, -12)"><foreignObject width="55.953125" height="24"><div xmlns="http://www.w3.org/1999/xhtml" class="labelBkg" style="display: table-cell; white-space: nowrap; line-height: 1.5; max-width: 200px; text-align: center;"><span class="edgeLabel"><p>extends</p></span></div></foreignObject></g></g><g class="edgeLabel" transform="translate(688.890625, 237)"><g class="label" data-id="id_Report_CustomerReport_3" transform="translate(-27.9765625, -12)"><foreignObject width="55.953125" height="24"><div xmlns="http://www.w3.org/1999/xhtml" class="labelBkg" style="display: table-cell; white-space: nowrap; line-height: 1.5; max-width: 200px; text-align: center;"><span class="edgeLabel"><p>extends</p></span></div></foreignObject></g></g><g class="edgeLabel" transform="translate(985.6796875, 237)"><g class="label" data-id="id_Report_ReportFormatter_4" transform="translate(-34.5390625, -12)"><foreignObject width="69.078125" height="24"><div xmlns="http://www.w3.org/1999/xhtml" class="labelBkg" style="display: table-cell; white-space: nowrap; line-height: 1.5; max-width: 200px; text-align: center;"><span class="edgeLabel"><p>delegates</p></span></div></foreignObject></g></g><g class="edgeLabel" transform="translate(404.650390625, 461)"><g class="label" data-id="id_ReportFormatter_PdfFormatter_5" transform="translate(-41.890625, -12)"><foreignObject width="83.78125" height="24"><div xmlns="http://www.w3.org/1999/xhtml" class="labelBkg" style="display: table-cell; white-space: nowrap; line-height: 1.5; max-width: 200px; text-align: center;"><span class="edgeLabel"><p>implements</p></span></div></foreignObject></g></g><g class="edgeLabel" transform="translate(700.091796875, 461)"><g class="label" data-id="id_ReportFormatter_ExcelFormatter_6" transform="translate(-41.890625, -12)"><foreignObject width="83.78125" height="24"><div xmlns="http://www.w3.org/1999/xhtml" class="labelBkg" style="display: table-cell; white-space: nowrap; line-height: 1.5; max-width: 200px; text-align: center;"><span class="edgeLabel"><p>implements</p></span></div></foreignObject></g></g><g class="edgeLabel" transform="translate(995.666015625, 461)"><g class="label" data-id="id_ReportFormatter_CsvFormatter_7" transform="translate(-41.890625, -12)"><foreignObject width="83.78125" height="24"><div xmlns="http://www.w3.org/1999/xhtml" class="labelBkg" style="display: table-cell; white-space: nowrap; line-height: 1.5; max-width: 200px; text-align: center;"><span class="edgeLabel"><p>implements</p></span></div></foreignObject></g></g><g class="edgeLabel" transform="translate(1289.708984375, 461)"><g class="label" data-id="id_ReportFormatter_JsonFormatter_8" transform="translate(-41.890625, -12)"><foreignObject width="83.78125" height="24"><div xmlns="http://www.w3.org/1999/xhtml" class="labelBkg" style="display: table-cell; white-space: nowrap; line-height: 1.5; max-width: 200px; text-align: center;"><span class="edgeLabel"><p>implements</p></span></div></foreignObject></g></g></g><g class="nodes"><g class="node default" id="graph-456-classId-Report-874" data-look="classic" transform="translate(406.51953125, 104)"><g class="basic label-container outer-path"><path d="M-178.359375 -96 L178.359375 -96 L178.359375 96 L-178.359375 96" stroke="none" stroke-width="0" fill="#ECECFF" style=""></path><path d="M-178.359375 -96 C-46.213279173643286 -96, 85.93281665271343 -96, 178.359375 -96 M-178.359375 -96 C-89.96392982957141 -96, -1.5684846591428254 -96, 178.359375 -96 M178.359375 -96 C178.359375 -35.94289543073124, 178.359375 24.114209138537518, 178.359375 96 M178.359375 -96 C178.359375 -19.8621447028996, 178.359375 56.2757105942008, 178.359375 96 M178.359375 96 C102.23071315354164 96, 26.102051307083286 96, -178.359375 96 M178.359375 96 C87.15461982963775 96, -4.050135340724495 96, -178.359375 96 M-178.359375 96 C-178.359375 48.46444422845366, -178.359375 0.9288884569073161, -178.359375 -96 M-178.359375 96 C-178.359375 45.77307008619734, -178.359375 -4.453859827605314, -178.359375 -96" stroke="#9370DB" stroke-width="1.3" fill="none" stroke-dasharray="0 0" style=""></path></g><g class="annotation-group text" transform="translate(0, -72)"></g><g class="label-group text" transform="translate(-25.265625, -72)"><g class="label" style="font-weight: bolder" transform="translate(0,-12)"><foreignObject width="50.53125" height="24"><div xmlns="http://www.w3.org/1999/xhtml" style="display: table-cell; white-space: nowrap; line-height: 1.5; max-width: 104px; text-align: center;"><span class="nodeLabel markdown-node-label" style=""><p>Report</p></span></div></foreignObject></g></g><g class="members-group text" transform="translate(-166.359375, -24)"><g class="label" style="" transform="translate(0,-12)"><foreignObject width="209.109375" height="24"><div xmlns="http://www.w3.org/1999/xhtml" style="display: table-cell; white-space: nowrap; line-height: 1.5; max-width: 294px; text-align: center;"><span class="nodeLabel markdown-node-label" style=""><p>-ReportFormatter $formatter</p></span></div></foreignObject></g></g><g class="methods-group text" transform="translate(-166.359375, 24)"><g class="label" style="" transform="translate(0,-12)"><foreignObject width="307.453125" height="24"><div xmlns="http://www.w3.org/1999/xhtml" style="display: table-cell; white-space: nowrap; line-height: 1.5; max-width: 403px; text-align: center;"><span class="nodeLabel markdown-node-label" style=""><p>+__construct(ReportFormatter $formatter)</p></span></div></foreignObject></g><g class="label" style="" transform="translate(0,12)"><foreignObject width="150.65625" height="24"><div xmlns="http://www.w3.org/1999/xhtml" style="display: table-cell; white-space: nowrap; line-height: 1.5; max-width: 227px; text-align: center;"><span class="nodeLabel markdown-node-label" style=""><p>+generate() : : string</p></span></div></foreignObject></g><g class="label" style="font-style:italic;" transform="translate(0,36)"><foreignObject width="155.734375" height="24"><div xmlns="http://www.w3.org/1999/xhtml" style="display: table-cell; white-space: nowrap; line-height: 1.5; max-width: 228px; text-align: center;"><span class="nodeLabel markdown-node-label" style=""><p>+fetchData() : : array</p></span></div></foreignObject></g></g><g class="divider" style=""><path d="M-178.359375 -48 C-51.554766924919875 -47.99964452497079, 75.24984115016025 -47.99928904994159, 178.359375 -47.999 M-178.359375 -48 C-56.2835503118941 -47.999657781306176, 65.7922743762118 -47.99931556261235, 178.359375 -47.999" stroke="#9370DB" stroke-width="1.3" fill="none" stroke-dasharray="0 0" style=""></path></g><g class="divider" style=""><path d="M-178.359375 0 C-70.35464417215415 0.00030277278900491173, 37.650086655691695 0.0006055455780098235, 178.359375 0.001 M-178.359375 0 C-105.48445909593572 0.0002042923617109117, -32.60954319187144 0.0004085847234218234, 178.359375 0.001" stroke="#9370DB" stroke-width="1.3" fill="none" stroke-dasharray="0 0" style=""></path></g></g><g class="node default" id="graph-456-classId-SalesReport-875" data-look="classic" transform="translate(119.0625, 349)"><g class="basic label-container outer-path"><path d="M-111.0625 -63 L111.0625 -63 L111.0625 63 L-111.0625 63" stroke="none" stroke-width="0" fill="#ECECFF" style=""></path><path d="M-111.0625 -63 C-46.810696134618624 -63, 17.441107730762752 -63, 111.0625 -63 M-111.0625 -63 C-35.837158562745614 -63, 39.38818287450877 -63, 111.0625 -63 M111.0625 -63 C111.0625 -17.264219122446896, 111.0625 28.471561755106208, 111.0625 63 M111.0625 -63 C111.0625 -28.46596937018196, 111.0625 6.068061259636082, 111.0625 63 M111.0625 63 C53.31154585474502 63, -4.439408290509959 63, -111.0625 63 M111.0625 63 C40.616121589343706 63, -29.830256821312588 63, -111.0625 63 M-111.0625 63 C-111.0625 30.047620549491413, -111.0625 -2.904758901017175, -111.0625 -63 M-111.0625 63 C-111.0625 27.598737207679044, -111.0625 -7.802525584641913, -111.0625 -63" stroke="#9370DB" stroke-width="1.3" fill="none" stroke-dasharray="0 0" style=""></path></g><g class="annotation-group text" transform="translate(0, -39)"></g><g class="label-group text" transform="translate(-44.015625, -39)"><g class="label" style="font-weight: bolder" transform="translate(0,-12)"><foreignObject width="88.03125" height="24"><div xmlns="http://www.w3.org/1999/xhtml" style="display: table-cell; white-space: nowrap; line-height: 1.5; max-width: 147px; text-align: center;"><span class="nodeLabel markdown-node-label" style=""><p>SalesReport</p></span></div></foreignObject></g></g><g class="members-group text" transform="translate(-99.0625, 9)"></g><g class="methods-group text" transform="translate(-99.0625, 39)"><g class="label" style="" transform="translate(0,-12)"><foreignObject width="154.109375" height="24"><div xmlns="http://www.w3.org/1999/xhtml" style="display: table-cell; white-space: nowrap; line-height: 1.5; max-width: 228px; text-align: center;"><span class="nodeLabel markdown-node-label" style=""><p>+fetchData() : : array</p></span></div></foreignObject></g></g><g class="divider" style=""><path d="M-111.0625 -15 C-26.44887580154537 -14.999619072035122, 58.16474839690926 -14.999238144070246, 111.0625 -14.999 M-111.0625 -15 C-26.84042556299474 -14.99962083478025, 57.38164887401052 -14.9992416695605, 111.0625 -14.999" stroke="#9370DB" stroke-width="1.3" fill="none" stroke-dasharray="0 0" style=""></path></g><g class="divider" style=""><path d="M-111.0625 9 C-60.19123989687993 9.000229020867094, -9.319979793759856 9.000458041734186, 111.0625 9.001 M-111.0625 9 C-47.56579355308513 9.000285860242867, 15.930912893829742 9.000571720485734, 111.0625 9.001" stroke="#9370DB" stroke-width="1.3" fill="none" stroke-dasharray="0 0" style=""></path></g></g><g class="node default" id="graph-456-classId-InventoryReport-876" data-look="classic" transform="translate(399.75, 349)"><g class="basic label-container outer-path"><path d="M-119.625 -63 L119.625 -63 L119.625 63 L-119.625 63" stroke="none" stroke-width="0" fill="#ECECFF" style=""></path><path d="M-119.625 -63 C-43.651682869992754 -63, 32.32163426001449 -63, 119.625 -63 M-119.625 -63 C-42.89767325136684 -63, 33.82965349726632 -63, 119.625 -63 M119.625 -63 C119.625 -18.813963682494077, 119.625 25.372072635011847, 119.625 63 M119.625 -63 C119.625 -18.460348188854404, 119.625 26.079303622291192, 119.625 63 M119.625 63 C69.20360266831896 63, 18.78220533663793 63, -119.625 63 M119.625 63 C26.069403906283753 63, -67.4861921874325 63, -119.625 63 M-119.625 63 C-119.625 23.630150534423983, -119.625 -15.739698931152034, -119.625 -63 M-119.625 63 C-119.625 34.63428445862798, -119.625 6.268568917255962, -119.625 -63" stroke="#9370DB" stroke-width="1.3" fill="none" stroke-dasharray="0 0" style=""></path></g><g class="annotation-group text" transform="translate(0, -39)"></g><g class="label-group text" transform="translate(-61.140625, -39)"><g class="label" style="font-weight: bolder" transform="translate(0,-12)"><foreignObject width="122.28125" height="24"><div xmlns="http://www.w3.org/1999/xhtml" style="display: table-cell; white-space: nowrap; line-height: 1.5; max-width: 184px; text-align: center;"><span class="nodeLabel markdown-node-label" style=""><p>InventoryReport</p></span></div></foreignObject></g></g><g class="members-group text" transform="translate(-107.625, 9)"></g><g class="methods-group text" transform="translate(-107.625, 39)"><g class="label" style="" transform="translate(0,-12)"><foreignObject width="154.109375" height="24"><div xmlns="http://www.w3.org/1999/xhtml" style="display: table-cell; white-space: nowrap; line-height: 1.5; max-width: 228px; text-align: center;"><span class="nodeLabel markdown-node-label" style=""><p>+fetchData() : : array</p></span></div></foreignObject></g></g><g class="divider" style=""><path d="M-119.625 -15 C-62.09762149982554 -14.999759551187042, -4.570242999651086 -14.999519102374084, 119.625 -14.999 M-119.625 -15 C-62.878420803150995 -14.999762814716, -6.13184160630199 -14.999525629432002, 119.625 -14.999" stroke="#9370DB" stroke-width="1.3" fill="none" stroke-dasharray="0 0" style=""></path></g><g class="divider" style=""><path d="M-119.625 9 C-66.55747918781377 9.000221807819486, -13.489958375627538 9.000443615638973, 119.625 9.001 M-119.625 9 C-27.991093784357076 9.000383004832667, 63.64281243128585 9.000766009665334, 119.625 9.001" stroke="#9370DB" stroke-width="1.3" fill="none" stroke-dasharray="0 0" style=""></path></g></g><g class="node default" id="graph-456-classId-CustomerReport-877" data-look="classic" transform="translate(688.890625, 349)"><g class="basic label-container outer-path"><path d="M-119.515625 -63 L119.515625 -63 L119.515625 63 L-119.515625 63" stroke="none" stroke-width="0" fill="#ECECFF" style=""></path><path d="M-119.515625 -63 C-25.457577595369145 -63, 68.60046980926171 -63, 119.515625 -63 M-119.515625 -63 C-47.84619811079426 -63, 23.823228778411476 -63, 119.515625 -63 M119.515625 -63 C119.515625 -25.56406251099675, 119.515625 11.871874978006502, 119.515625 63 M119.515625 -63 C119.515625 -35.48200925439633, 119.515625 -7.964018508792655, 119.515625 63 M119.515625 63 C25.772921586427046 63, -67.96978182714591 63, -119.515625 63 M119.515625 63 C55.83143141696452 63, -7.85276216607096 63, -119.515625 63 M-119.515625 63 C-119.515625 14.725013859447323, -119.515625 -33.549972281105354, -119.515625 -63 M-119.515625 63 C-119.515625 16.411412213364763, -119.515625 -30.177175573270475, -119.515625 -63" stroke="#9370DB" stroke-width="1.3" fill="none" stroke-dasharray="0 0" style=""></path></g><g class="annotation-group text" transform="translate(0, -39)"></g><g class="label-group text" transform="translate(-60.921875, -39)"><g class="label" style="font-weight: bolder" transform="translate(0,-12)"><foreignObject width="121.84375" height="24"><div xmlns="http://www.w3.org/1999/xhtml" style="display: table-cell; white-space: nowrap; line-height: 1.5; max-width: 179px; text-align: center;"><span class="nodeLabel markdown-node-label" style=""><p>CustomerReport</p></span></div></foreignObject></g></g><g class="members-group text" transform="translate(-107.515625, 9)"></g><g class="methods-group text" transform="translate(-107.515625, 39)"><g class="label" style="" transform="translate(0,-12)"><foreignObject width="154.109375" height="24"><div xmlns="http://www.w3.org/1999/xhtml" style="display: table-cell; white-space: nowrap; line-height: 1.5; max-width: 228px; text-align: center;"><span class="nodeLabel markdown-node-label" style=""><p>+fetchData() : : array</p></span></div></foreignObject></g></g><g class="divider" style=""><path d="M-119.515625 -15 C-31.283120041415657 -14.99963087460339, 56.949384917168686 -14.999261749206779, 119.515625 -14.999 M-119.515625 -15 C-43.18451925438407 -14.999680664742598, 33.14658649123186 -14.999361329485199, 119.515625 -14.999" stroke="#9370DB" stroke-width="1.3" fill="none" stroke-dasharray="0 0" style=""></path></g><g class="divider" style=""><path d="M-119.515625 9 C-44.39108644376171 9.000314287519126, 30.733452112476584 9.000628575038252, 119.515625 9.001 M-119.515625 9 C-57.36250957372245 9.000260020877715, 4.790605852555103 9.00052004175543, 119.515625 9.001" stroke="#9370DB" stroke-width="1.3" fill="none" stroke-dasharray="0 0" style=""></path></g></g><g class="node default" id="graph-456-classId-ReportFormatter-878" data-look="classic" transform="translate(985.6796875, 349)"><g class="basic label-container outer-path"><path d="M-127.2734375 -75 L127.2734375 -75 L127.2734375 75 L-127.2734375 75" stroke="none" stroke-width="0" fill="#ECECFF" style=""></path><path d="M-127.2734375 -75 C-28.36650393155766 -75, 70.54042963688468 -75, 127.2734375 -75 M-127.2734375 -75 C-33.779187642023444 -75, 59.71506221595311 -75, 127.2734375 -75 M127.2734375 -75 C127.2734375 -36.782210870829985, 127.2734375 1.4355782583400298, 127.2734375 75 M127.2734375 -75 C127.2734375 -25.532651515245938, 127.2734375 23.934696969508124, 127.2734375 75 M127.2734375 75 C61.9322277256629 75, -3.408982048674204 75, -127.2734375 75 M127.2734375 75 C71.8831277567941 75, 16.492818013588206 75, -127.2734375 75 M-127.2734375 75 C-127.2734375 42.54057464474794, -127.2734375 10.081149289495883, -127.2734375 -75 M-127.2734375 75 C-127.2734375 24.665722186955854, -127.2734375 -25.668555626088292, -127.2734375 -75" stroke="#9370DB" stroke-width="1.3" fill="none" stroke-dasharray="0 0" style=""></path></g><g class="annotation-group text" transform="translate(-41.171875, -51)"><g class="label" style="" transform="translate(0,-12)"><foreignObject width="82.34375" height="24"><div xmlns="http://www.w3.org/1999/xhtml" style="display: table-cell; white-space: nowrap; line-height: 1.5; max-width: 142px; text-align: center;"><span class="nodeLabel markdown-node-label" style=""><p>«interface»</p></span></div></foreignObject></g></g><g class="label-group text" transform="translate(-63, -27)"><g class="label" style="font-weight: bolder" transform="translate(0,-12)"><foreignObject width="126" height="24"><div xmlns="http://www.w3.org/1999/xhtml" style="display: table-cell; white-space: nowrap; line-height: 1.5; max-width: 184px; text-align: center;"><span class="nodeLabel markdown-node-label" style=""><p>ReportFormatter</p></span></div></foreignObject></g></g><g class="members-group text" transform="translate(-115.2734375, 21)"></g><g class="methods-group text" transform="translate(-115.2734375, 51)"><g class="label" style="" transform="translate(0,-12)"><foreignObject width="167.546875" height="24"><div xmlns="http://www.w3.org/1999/xhtml" style="display: table-cell; white-space: nowrap; line-height: 1.5; max-width: 245px; text-align: center;"><span class="nodeLabel markdown-node-label" style=""><p>+format(data) : : string</p></span></div></foreignObject></g></g><g class="divider" style=""><path d="M-127.2734375 -3 C-52.99191901579371 -2.9997081813772644, 21.289599468412575 -2.9994163627545283, 127.2734375 -2.999 M-127.2734375 -3 C-34.46322812089312 -2.999635390497805, 58.34698125821376 -2.9992707809956096, 127.2734375 -2.999" stroke="#9370DB" stroke-width="1.3" fill="none" stroke-dasharray="0 0" style=""></path></g><g class="divider" style=""><path d="M-127.2734375 21 C-27.268159542959097 21.000392875685304, 72.7371184140818 21.000785751370604, 127.2734375 21.001 M-127.2734375 21 C-49.2969967843909 21.00030633430764, 28.679443931218202 21.000612668615286, 127.2734375 21.001" stroke="#9370DB" stroke-width="1.3" fill="none" stroke-dasharray="0 0" style=""></path></g></g><g class="node default" id="graph-456-classId-PdfFormatter-879" data-look="classic" transform="translate(404.650390625, 561)"><g class="basic label-container outer-path"><path d="M-120.7890625 -63 L120.7890625 -63 L120.7890625 63 L-120.7890625 63" stroke="none" stroke-width="0" fill="#ECECFF" style=""></path><path d="M-120.7890625 -63 C-67.86678090550893 -63, -14.944499311017864 -63, 120.7890625 -63 M-120.7890625 -63 C-34.06445460862061 -63, 52.660153282758785 -63, 120.7890625 -63 M120.7890625 -63 C120.7890625 -23.796402662875785, 120.7890625 15.40719467424843, 120.7890625 63 M120.7890625 -63 C120.7890625 -25.708290000798605, 120.7890625 11.583419998402789, 120.7890625 63 M120.7890625 63 C34.32118690824316 63, -52.14668868351367 63, -120.7890625 63 M120.7890625 63 C28.101168598173743 63, -64.58672530365251 63, -120.7890625 63 M-120.7890625 63 C-120.7890625 12.735413088464249, -120.7890625 -37.5291738230715, -120.7890625 -63 M-120.7890625 63 C-120.7890625 15.12912406704556, -120.7890625 -32.74175186590888, -120.7890625 -63" stroke="#9370DB" stroke-width="1.3" fill="none" stroke-dasharray="0 0" style=""></path></g><g class="annotation-group text" transform="translate(0, -39)"></g><g class="label-group text" transform="translate(-50.03125, -39)"><g class="label" style="font-weight: bolder" transform="translate(0,-12)"><foreignObject width="100.0625" height="24"><div xmlns="http://www.w3.org/1999/xhtml" style="display: table-cell; white-space: nowrap; line-height: 1.5; max-width: 156px; text-align: center;"><span class="nodeLabel markdown-node-label" style=""><p>PdfFormatter</p></span></div></foreignObject></g></g><g class="members-group text" transform="translate(-108.7890625, 9)"></g><g class="methods-group text" transform="translate(-108.7890625, 39)"><g class="label" style="" transform="translate(0,-12)"><foreignObject width="167.546875" height="24"><div xmlns="http://www.w3.org/1999/xhtml" style="display: table-cell; white-space: nowrap; line-height: 1.5; max-width: 245px; text-align: center;"><span class="nodeLabel markdown-node-label" style=""><p>+format(data) : : string</p></span></div></foreignObject></g></g><g class="divider" style=""><path d="M-120.7890625 -15 C-32.19880046545518 -14.999633285248677, 56.39146156908964 -14.999266570497353, 120.7890625 -14.999 M-120.7890625 -15 C-58.46569966781367 -14.999742015702655, 3.857663164372667 -14.99948403140531, 120.7890625 -14.999" stroke="#9370DB" stroke-width="1.3" fill="none" stroke-dasharray="0 0" style=""></path></g><g class="divider" style=""><path d="M-120.7890625 9 C-48.53529315667694 9.000299090695167, 23.718476186646114 9.000598181390334, 120.7890625 9.001 M-120.7890625 9 C-33.20853209162884 9.000362535020123, 54.37199831674232 9.000725070040247, 120.7890625 9.001" stroke="#9370DB" stroke-width="1.3" fill="none" stroke-dasharray="0 0" style=""></path></g></g><g class="node default" id="graph-456-classId-ExcelFormatter-880" data-look="classic" transform="translate(700.091796875, 561)"><g class="basic label-container outer-path"><path d="M-124.65234375 -63 L124.65234375 -63 L124.65234375 63 L-124.65234375 63" stroke="none" stroke-width="0" fill="#ECECFF" style=""></path><path d="M-124.65234375 -63 C-39.19007881318949 -63, 46.272186123621026 -63, 124.65234375 -63 M-124.65234375 -63 C-61.26897529148229 -63, 2.1143931670354164 -63, 124.65234375 -63 M124.65234375 -63 C124.65234375 -27.535329619460256, 124.65234375 7.929340761079487, 124.65234375 63 M124.65234375 -63 C124.65234375 -21.06476707759193, 124.65234375 20.870465844816138, 124.65234375 63 M124.65234375 63 C74.70707931878792 63, 24.761814887575824 63, -124.65234375 63 M124.65234375 63 C31.331547328784893 63, -61.989249092430214 63, -124.65234375 63 M-124.65234375 63 C-124.65234375 24.943226352802697, -124.65234375 -13.113547294394607, -124.65234375 -63 M-124.65234375 63 C-124.65234375 22.19409659243499, -124.65234375 -18.611806815130024, -124.65234375 -63" stroke="#9370DB" stroke-width="1.3" fill="none" stroke-dasharray="0 0" style=""></path></g><g class="annotation-group text" transform="translate(0, -39)"></g><g class="label-group text" transform="translate(-57.7578125, -39)"><g class="label" style="font-weight: bolder" transform="translate(0,-12)"><foreignObject width="115.515625" height="24"><div xmlns="http://www.w3.org/1999/xhtml" style="display: table-cell; white-space: nowrap; line-height: 1.5; max-width: 172px; text-align: center;"><span class="nodeLabel markdown-node-label" style=""><p>ExcelFormatter</p></span></div></foreignObject></g></g><g class="members-group text" transform="translate(-112.65234375, 9)"></g><g class="methods-group text" transform="translate(-112.65234375, 39)"><g class="label" style="" transform="translate(0,-12)"><foreignObject width="167.546875" height="24"><div xmlns="http://www.w3.org/1999/xhtml" style="display: table-cell; white-space: nowrap; line-height: 1.5; max-width: 245px; text-align: center;"><span class="nodeLabel markdown-node-label" style=""><p>+format(data) : : string</p></span></div></foreignObject></g></g><g class="divider" style=""><path d="M-124.65234375 -15 C-60.73239021444748 -14.999743607093086, 3.1875633211050456 -14.999487214186171, 124.65234375 -14.999 M-124.65234375 -15 C-49.47032678708544 -14.999698433199484, 25.71169017582912 -14.99939686639897, 124.65234375 -14.999" stroke="#9370DB" stroke-width="1.3" fill="none" stroke-dasharray="0 0" style=""></path></g><g class="divider" style=""><path d="M-124.65234375 9 C-69.28914020816197 9.000222070447599, -13.925936666323935 9.0004441408952, 124.65234375 9.001 M-124.65234375 9 C-65.96496431441687 9.000235404235774, -7.277584878833764 9.000470808471546, 124.65234375 9.001" stroke="#9370DB" stroke-width="1.3" fill="none" stroke-dasharray="0 0" style=""></path></g></g><g class="node default" id="graph-456-classId-CsvFormatter-881" data-look="classic" transform="translate(995.666015625, 561)"><g class="basic label-container outer-path"><path d="M-120.921875 -63 L120.921875 -63 L120.921875 63 L-120.921875 63" stroke="none" stroke-width="0" fill="#ECECFF" style=""></path><path d="M-120.921875 -63 C-32.5529709275354 -63, 55.815933144929204 -63, 120.921875 -63 M-120.921875 -63 C-59.9758021853927 -63, 0.9702706292145962 -63, 120.921875 -63 M120.921875 -63 C120.921875 -34.78674557465845, 120.921875 -6.573491149316894, 120.921875 63 M120.921875 -63 C120.921875 -32.20727805641164, 120.921875 -1.41455611282327, 120.921875 63 M120.921875 63 C53.660239284593814 63, -13.601396430812372 63, -120.921875 63 M120.921875 63 C35.95038237574332 63, -49.02111024851337 63, -120.921875 63 M-120.921875 63 C-120.921875 19.695838228168235, -120.921875 -23.60832354366353, -120.921875 -63 M-120.921875 63 C-120.921875 29.0282665241987, -120.921875 -4.943466951602602, -120.921875 -63" stroke="#9370DB" stroke-width="1.3" fill="none" stroke-dasharray="0 0" style=""></path></g><g class="annotation-group text" transform="translate(0, -39)"></g><g class="label-group text" transform="translate(-50.296875, -39)"><g class="label" style="font-weight: bolder" transform="translate(0,-12)"><foreignObject width="100.59375" height="24"><div xmlns="http://www.w3.org/1999/xhtml" style="display: table-cell; white-space: nowrap; line-height: 1.5; max-width: 158px; text-align: center;"><span class="nodeLabel markdown-node-label" style=""><p>CsvFormatter</p></span></div></foreignObject></g></g><g class="members-group text" transform="translate(-108.921875, 9)"></g><g class="methods-group text" transform="translate(-108.921875, 39)"><g class="label" style="" transform="translate(0,-12)"><foreignObject width="167.546875" height="24"><div xmlns="http://www.w3.org/1999/xhtml" style="display: table-cell; white-space: nowrap; line-height: 1.5; max-width: 245px; text-align: center;"><span class="nodeLabel markdown-node-label" style=""><p>+format(data) : : string</p></span></div></foreignObject></g></g><g class="divider" style=""><path d="M-120.921875 -15 C-35.971765498788386 -14.99964873969453, 48.97834400242323 -14.999297479389059, 120.921875 -14.999 M-120.921875 -15 C-43.862619594030946 -14.999681367596203, 33.19663581193811 -14.999362735192404, 120.921875 -14.999" stroke="#9370DB" stroke-width="1.3" fill="none" stroke-dasharray="0 0" style=""></path></g><g class="divider" style=""><path d="M-120.921875 9 C-33.592093749373845 9.000361100012924, 53.73768750125231 9.000722200025848, 120.921875 9.001 M-120.921875 9 C-44.69221889835566 9.00031520209268, 31.537437203288675 9.00063040418536, 120.921875 9.001" stroke="#9370DB" stroke-width="1.3" fill="none" stroke-dasharray="0 0" style=""></path></g></g><g class="node default" id="graph-456-classId-JsonFormatter-882" data-look="classic" transform="translate(1289.708984375, 561)"><g class="basic label-container outer-path"><path d="M-123.12109375 -63 L123.12109375 -63 L123.12109375 63 L-123.12109375 63" stroke="none" stroke-width="0" fill="#ECECFF" style=""></path><path d="M-123.12109375 -63 C-41.57678752910442 -63, 39.967518691791156 -63, 123.12109375 -63 M-123.12109375 -63 C-52.204688513768374 -63, 18.71171672246325 -63, 123.12109375 -63 M123.12109375 -63 C123.12109375 -25.0830149150381, 123.12109375 12.833970169923802, 123.12109375 63 M123.12109375 -63 C123.12109375 -29.01638060424338, 123.12109375 4.967238791513239, 123.12109375 63 M123.12109375 63 C61.31594467018386 63, -0.4892044096322792 63, -123.12109375 63 M123.12109375 63 C42.56765367422092 63, -37.98578640155816 63, -123.12109375 63 M-123.12109375 63 C-123.12109375 20.48527159964938, -123.12109375 -22.02945680070124, -123.12109375 -63 M-123.12109375 63 C-123.12109375 33.02707992261572, -123.12109375 3.054159845231439, -123.12109375 -63" stroke="#9370DB" stroke-width="1.3" fill="none" stroke-dasharray="0 0" style=""></path></g><g class="annotation-group text" transform="translate(0, -39)"></g><g class="label-group text" transform="translate(-54.6953125, -39)"><g class="label" style="font-weight: bolder" transform="translate(0,-12)"><foreignObject width="109.390625" height="24"><div xmlns="http://www.w3.org/1999/xhtml" style="display: table-cell; white-space: nowrap; line-height: 1.5; max-width: 166px; text-align: center;"><span class="nodeLabel markdown-node-label" style=""><p>JsonFormatter</p></span></div></foreignObject></g></g><g class="members-group text" transform="translate(-111.12109375, 9)"></g><g class="methods-group text" transform="translate(-111.12109375, 39)"><g class="label" style="" transform="translate(0,-12)"><foreignObject width="167.546875" height="24"><div xmlns="http://www.w3.org/1999/xhtml" style="display: table-cell; white-space: nowrap; line-height: 1.5; max-width: 245px; text-align: center;"><span class="nodeLabel markdown-node-label" style=""><p>+format(data) : : string</p></span></div></foreignObject></g></g><g class="divider" style=""><path d="M-123.12109375 -15 C-62.81755190597212 -14.99975510475091, -2.5140100619442336 -14.999510209501823, 123.12109375 -14.999 M-123.12109375 -15 C-59.602367914149596 -14.999742047751928, 3.9163579217008078 -14.999484095503856, 123.12109375 -14.999" stroke="#9370DB" stroke-width="1.3" fill="none" stroke-dasharray="0 0" style=""></path></g><g class="divider" style=""><path d="M-123.12109375 9 C-70.85991353736256 9.000212234876335, -18.598733324725117 9.000424469752671, 123.12109375 9.001 M-123.12109375 9 C-44.292739436232 9.00032012530068, 34.535614877536005 9.00064025060136, 123.12109375 9.001" stroke="#9370DB" stroke-width="1.3" fill="none" stroke-dasharray="0 0" style=""></path></g></g></g></g></g></g></svg>